<mxfile host="app.diagrams.net" modified="2024-06-27T21:53:43.693Z" agent="Mozilla/5.0 (Windows NT 10.0; Win64; x64) AppleWebKit/537.36 (KHTML, like Gecko) Chrome/126.0.0.0 Safari/537.36" etag="aOjFOTyVtn055lrI3QHE" version="24.6.4" type="github">
  <diagram name="Page-1" id="4fc8d65c-f3f6-feb3-4d1c-02f59d9f9886">
    <mxGraphModel dx="1706" dy="529" grid="1" gridSize="10" guides="1" tooltips="1" connect="1" arrows="1" fold="1" page="1" pageScale="1" pageWidth="826" pageHeight="1169" background="none" math="0" shadow="0">
      <root>
        <mxCell id="0" />
        <mxCell id="1" parent="0" />
        <mxCell id="2" value="Filosófico" style="whiteSpace=wrap;strokeWidth=2" parent="1" vertex="1">
          <mxGeometry x="36.458333333333236" y="110" width="120" height="60" as="geometry" />
        </mxCell>
        <mxCell id="5" value="Econômico" style="whiteSpace=wrap;strokeWidth=2" parent="1" vertex="1">
          <mxGeometry x="36.458333333333236" y="400" width="120" height="60" as="geometry" />
        </mxCell>
        <mxCell id="8" value="Natureza" style="whiteSpace=wrap;strokeWidth=3" parent="1" vertex="1">
          <mxGeometry x="680" y="250" width="120" height="60" as="geometry" />
        </mxCell>
        <mxCell id="9" value="" style="edgeStyle=none;strokeWidth=4" parent="1" target="8" edge="1">
          <mxGeometry width="100" height="100" relative="1" as="geometry">
            <mxPoint x="-710" y="280" as="sourcePoint" />
            <mxPoint x="240" y="230" as="targetPoint" />
          </mxGeometry>
        </mxCell>
        <mxCell id="12" value="" style="edgeStyle=none;exitX=0.5;exitY=1;strokeWidth=3" parent="1" source="2" edge="1">
          <mxGeometry width="100" height="100" relative="1" as="geometry">
            <mxPoint x="96.45833333333323" y="190" as="sourcePoint" />
            <mxPoint x="156.45833333333323" y="280" as="targetPoint" />
          </mxGeometry>
        </mxCell>
        <mxCell id="15" value="" style="edgeStyle=none;exitX=0.5;exitY=0;strokeWidth=3" parent="1" edge="1">
          <mxGeometry width="100" height="100" relative="1" as="geometry">
            <mxPoint x="96.45833333333323" y="400" as="sourcePoint" />
            <mxPoint x="156.45833333333323" y="280" as="targetPoint" />
          </mxGeometry>
        </mxCell>
        <mxCell id="16" value="" style="edgeStyle=none;endArrow=none;strokeWidth=2" parent="1" edge="1">
          <mxGeometry width="100" height="100" relative="1" as="geometry">
            <mxPoint x="46.458333333333236" y="190" as="sourcePoint" />
            <mxPoint x="106.45833333333323" y="190" as="targetPoint" />
          </mxGeometry>
        </mxCell>
        <mxCell id="17" value="" style="edgeStyle=none;endArrow=none;strokeWidth=2" parent="1" edge="1">
          <mxGeometry width="100" height="100" relative="1" as="geometry">
            <mxPoint x="66.45833333333323" y="226" as="sourcePoint" />
            <mxPoint x="126.45833333333323" y="226" as="targetPoint" />
          </mxGeometry>
        </mxCell>
        <mxCell id="18" value="" style="edgeStyle=none;endArrow=none;strokeWidth=2" parent="1" edge="1">
          <mxGeometry width="100" height="100" relative="1" as="geometry">
            <mxPoint x="86.45833333333323" y="260" as="sourcePoint" />
            <mxPoint x="146.45833333333323" y="260" as="targetPoint" />
          </mxGeometry>
        </mxCell>
        <mxCell id="19" value="" style="edgeStyle=none;endArrow=none;strokeWidth=2" parent="1" edge="1">
          <mxGeometry width="100" height="100" relative="1" as="geometry">
            <mxPoint x="106.45833333333323" y="190" as="sourcePoint" />
            <mxPoint x="166.45833333333323" y="190" as="targetPoint" />
          </mxGeometry>
        </mxCell>
        <mxCell id="20" value="" style="edgeStyle=none;endArrow=none;strokeWidth=2" parent="1" edge="1">
          <mxGeometry width="100" height="100" relative="1" as="geometry">
            <mxPoint x="126.45833333333323" y="226" as="sourcePoint" />
            <mxPoint x="186.45833333333323" y="226" as="targetPoint" />
          </mxGeometry>
        </mxCell>
        <mxCell id="21" value="" style="edgeStyle=none;endArrow=none;strokeWidth=2" parent="1" edge="1">
          <mxGeometry width="100" height="100" relative="1" as="geometry">
            <mxPoint x="146.45833333333323" y="260" as="sourcePoint" />
            <mxPoint x="206.45833333333323" y="260" as="targetPoint" />
          </mxGeometry>
        </mxCell>
        <mxCell id="25" value="" style="edgeStyle=none;endArrow=none;strokeWidth=2" parent="1" edge="1">
          <mxGeometry width="100" height="100" relative="1" as="geometry">
            <mxPoint x="86.45833333333323" y="300" as="sourcePoint" />
            <mxPoint x="146.45833333333323" y="300" as="targetPoint" />
          </mxGeometry>
        </mxCell>
        <mxCell id="26" value="" style="edgeStyle=none;endArrow=none;strokeWidth=2" parent="1" edge="1">
          <mxGeometry width="100" height="100" relative="1" as="geometry">
            <mxPoint x="66.45833333333323" y="340" as="sourcePoint" />
            <mxPoint x="126.45833333333323" y="340" as="targetPoint" />
          </mxGeometry>
        </mxCell>
        <mxCell id="27" value="" style="edgeStyle=none;endArrow=none;strokeWidth=2" parent="1" edge="1">
          <mxGeometry width="100" height="100" relative="1" as="geometry">
            <mxPoint x="46.458333333333236" y="380" as="sourcePoint" />
            <mxPoint x="106.45833333333323" y="380" as="targetPoint" />
          </mxGeometry>
        </mxCell>
        <mxCell id="35" value="" style="edgeStyle=none;endArrow=none;strokeWidth=2" parent="1" edge="1">
          <mxGeometry width="100" height="100" relative="1" as="geometry">
            <mxPoint x="146.45833333333323" y="300" as="sourcePoint" />
            <mxPoint x="206.45833333333323" y="300" as="targetPoint" />
          </mxGeometry>
        </mxCell>
        <mxCell id="36" value="" style="edgeStyle=none;endArrow=none;strokeWidth=2" parent="1" edge="1">
          <mxGeometry width="100" height="100" relative="1" as="geometry">
            <mxPoint x="126.45833333333323" y="340" as="sourcePoint" />
            <mxPoint x="186.45833333333323" y="340" as="targetPoint" />
          </mxGeometry>
        </mxCell>
        <mxCell id="37" value="" style="edgeStyle=none;endArrow=none;strokeWidth=2" parent="1" edge="1">
          <mxGeometry width="100" height="100" relative="1" as="geometry">
            <mxPoint x="106.45833333333323" y="380" as="sourcePoint" />
            <mxPoint x="166.45833333333323" y="380" as="targetPoint" />
          </mxGeometry>
        </mxCell>
        <mxCell id="38" value="" style="edgeStyle=none;endArrow=none;" parent="1" edge="1">
          <mxGeometry width="100" height="100" relative="1" as="geometry">
            <mxPoint x="76.45833333333323" y="210" as="sourcePoint" />
            <mxPoint x="96.45833333333323" y="190" as="targetPoint" />
          </mxGeometry>
        </mxCell>
        <mxCell id="39" value="" style="edgeStyle=none;endArrow=none;" parent="1" edge="1">
          <mxGeometry width="100" height="100" relative="1" as="geometry">
            <mxPoint x="46.458333333333236" y="210" as="sourcePoint" />
            <mxPoint x="66.45833333333323" y="190" as="targetPoint" />
          </mxGeometry>
        </mxCell>
        <mxCell id="40" value="" style="edgeStyle=none;endArrow=none;" parent="1" edge="1">
          <mxGeometry width="100" height="100" relative="1" as="geometry">
            <mxPoint x="156.45833333333323" y="260" as="sourcePoint" />
            <mxPoint x="176.45833333333323" y="240" as="targetPoint" />
          </mxGeometry>
        </mxCell>
        <mxCell id="41" value="" style="edgeStyle=none;endArrow=none;" parent="1" edge="1">
          <mxGeometry width="100" height="100" relative="1" as="geometry">
            <mxPoint x="186.45833333333323" y="260" as="sourcePoint" />
            <mxPoint x="206.45833333333323" y="240" as="targetPoint" />
          </mxGeometry>
        </mxCell>
        <mxCell id="42" value="" style="edgeStyle=none;endArrow=none;" parent="1" edge="1">
          <mxGeometry width="100" height="100" relative="1" as="geometry">
            <mxPoint x="135.97608024691348" y="226.36959876543202" as="sourcePoint" />
            <mxPoint x="155.97608024691348" y="206.36959876543202" as="targetPoint" />
          </mxGeometry>
        </mxCell>
        <mxCell id="43" value="" style="edgeStyle=none;endArrow=none;" parent="1" edge="1">
          <mxGeometry width="100" height="100" relative="1" as="geometry">
            <mxPoint x="165.97608024691348" y="226.36959876543202" as="sourcePoint" />
            <mxPoint x="185.97608024691348" y="206.36959876543202" as="targetPoint" />
          </mxGeometry>
        </mxCell>
        <mxCell id="44" value="" style="edgeStyle=none;endArrow=none;" parent="1" edge="1">
          <mxGeometry width="100" height="100" relative="1" as="geometry">
            <mxPoint x="95.97608024691348" y="246.369598765432" as="sourcePoint" />
            <mxPoint x="115.97608024691348" y="226.36959876543202" as="targetPoint" />
          </mxGeometry>
        </mxCell>
        <mxCell id="45" value="" style="edgeStyle=none;endArrow=none;" parent="1" edge="1">
          <mxGeometry width="100" height="100" relative="1" as="geometry">
            <mxPoint x="65.97608024691347" y="246.369598765432" as="sourcePoint" />
            <mxPoint x="85.97608024691348" y="226.36959876543202" as="targetPoint" />
          </mxGeometry>
        </mxCell>
        <mxCell id="46" value="" style="edgeStyle=none;endArrow=none;" parent="1" edge="1">
          <mxGeometry width="100" height="100" relative="1" as="geometry">
            <mxPoint x="146.45833333333323" y="380" as="sourcePoint" />
            <mxPoint x="166.45833333333323" y="360" as="targetPoint" />
          </mxGeometry>
        </mxCell>
        <mxCell id="47" value="" style="edgeStyle=none;endArrow=none;" parent="1" edge="1">
          <mxGeometry width="100" height="100" relative="1" as="geometry">
            <mxPoint x="116.45833333333323" y="380" as="sourcePoint" />
            <mxPoint x="136.45833333333323" y="360" as="targetPoint" />
          </mxGeometry>
        </mxCell>
        <mxCell id="48" value="" style="edgeStyle=none;endArrow=none;" parent="1" edge="1">
          <mxGeometry width="100" height="100" relative="1" as="geometry">
            <mxPoint x="166.45833333333323" y="340" as="sourcePoint" />
            <mxPoint x="186.45833333333323" y="320" as="targetPoint" />
          </mxGeometry>
        </mxCell>
        <mxCell id="49" value="" style="edgeStyle=none;endArrow=none;" parent="1" edge="1">
          <mxGeometry width="100" height="100" relative="1" as="geometry">
            <mxPoint x="136.45833333333323" y="340" as="sourcePoint" />
            <mxPoint x="156.45833333333323" y="320" as="targetPoint" />
          </mxGeometry>
        </mxCell>
        <mxCell id="50" value="" style="edgeStyle=none;endArrow=none;" parent="1" edge="1">
          <mxGeometry width="100" height="100" relative="1" as="geometry">
            <mxPoint x="96.45833333333323" y="360" as="sourcePoint" />
            <mxPoint x="116.45833333333323" y="340" as="targetPoint" />
          </mxGeometry>
        </mxCell>
        <mxCell id="52" value="" style="edgeStyle=none;endArrow=none;" parent="1" edge="1">
          <mxGeometry width="100" height="100" relative="1" as="geometry">
            <mxPoint x="96.45833333333323" y="360" as="sourcePoint" />
            <mxPoint x="116.45833333333323" y="340" as="targetPoint" />
          </mxGeometry>
        </mxCell>
        <mxCell id="53" value="" style="edgeStyle=none;endArrow=none;" parent="1" edge="1">
          <mxGeometry width="100" height="100" relative="1" as="geometry">
            <mxPoint x="66.45833333333323" y="360" as="sourcePoint" />
            <mxPoint x="86.45833333333323" y="340" as="targetPoint" />
          </mxGeometry>
        </mxCell>
        <mxCell id="54" value="" style="edgeStyle=none;endArrow=none;" parent="1" edge="1">
          <mxGeometry width="100" height="100" relative="1" as="geometry">
            <mxPoint x="116.45833333333323" y="320" as="sourcePoint" />
            <mxPoint x="136.45833333333323" y="300" as="targetPoint" />
          </mxGeometry>
        </mxCell>
        <mxCell id="55" value="" style="edgeStyle=none;endArrow=none;" parent="1" edge="1">
          <mxGeometry width="100" height="100" relative="1" as="geometry">
            <mxPoint x="86.45833333333323" y="320" as="sourcePoint" />
            <mxPoint x="106.45833333333323" y="300" as="targetPoint" />
          </mxGeometry>
        </mxCell>
        <mxCell id="114" value="Detail" style="text;spacingTop=-5;fontSize=8;align=center;verticalAlign=middle;points=[]" parent="1" vertex="1">
          <mxGeometry x="16.458333333333236" y="180.00000000000006" width="30" height="19.999999999999886" as="geometry" />
        </mxCell>
        <mxCell id="116" value="Detail" style="text;spacingTop=-5;fontSize=8;align=center;verticalAlign=middle;points=[]" parent="1" vertex="1">
          <mxGeometry x="36.45833333333321" y="219.99999999999994" width="30" height="19.999999999999886" as="geometry" />
        </mxCell>
        <mxCell id="117" value="Detail" style="text;spacingTop=-5;fontSize=8;align=center;verticalAlign=middle;points=[]" parent="1" vertex="1">
          <mxGeometry x="56.45833333333321" y="260.0000000000001" width="30" height="19.999999999999886" as="geometry" />
        </mxCell>
        <mxCell id="118" value="Detail" style="text;spacingTop=-5;fontSize=8;align=center;verticalAlign=middle;points=[]" parent="1" vertex="1">
          <mxGeometry x="56.45833333333321" y="290.0000000000002" width="30" height="19.999999999999886" as="geometry" />
        </mxCell>
        <mxCell id="119" value="Detail" style="text;spacingTop=-5;fontSize=8;align=center;verticalAlign=middle;points=[]" parent="1" vertex="1">
          <mxGeometry x="36.458333333333165" y="339.99999999999983" width="30" height="19.999999999999886" as="geometry" />
        </mxCell>
        <mxCell id="120" value="Detail" style="text;spacingTop=-5;fontSize=8;align=center;verticalAlign=middle;points=[]" parent="1" vertex="1">
          <mxGeometry x="16.458333333333293" y="380.0000000000002" width="30" height="19.999999999999886" as="geometry" />
        </mxCell>
        <mxCell id="121" value="Sub-detail" style="text;spacingTop=-5;fontSize=6;align=center;verticalAlign=middle;points=[]" parent="1" vertex="1">
          <mxGeometry x="31.458333333333307" y="209.99999999999994" width="30" height="19.999999999999886" as="geometry" />
        </mxCell>
        <mxCell id="122" value="Sub-detail" style="text;spacingTop=-5;fontSize=6;align=center;verticalAlign=middle;points=[]" parent="1" vertex="1">
          <mxGeometry x="66.45833333333317" y="209.99999999999997" width="30" height="19.999999999999886" as="geometry" />
        </mxCell>
        <mxCell id="123" value="Sub-detail" style="text;spacingTop=-5;fontSize=6;align=center;verticalAlign=middle;points=[]" parent="1" vertex="1">
          <mxGeometry x="44.51388888888878" y="246.52777777777774" width="30" height="19.999999999999886" as="geometry" />
        </mxCell>
        <mxCell id="124" value="Sub-detail" style="text;spacingTop=-5;fontSize=6;align=center;verticalAlign=middle;points=[]" parent="1" vertex="1">
          <mxGeometry x="79.51388888888863" y="246.5277777777778" width="30" height="19.999999999999886" as="geometry" />
        </mxCell>
        <mxCell id="125" value="Sub-detail" style="text;spacingTop=-5;fontSize=6;align=center;verticalAlign=middle;points=[]" parent="1" vertex="1">
          <mxGeometry x="61.45833333333322" y="320.4166666666666" width="30" height="19.999999999999886" as="geometry" />
        </mxCell>
        <mxCell id="126" value="Sub-detail" style="text;spacingTop=-5;fontSize=6;align=center;verticalAlign=middle;points=[]" parent="1" vertex="1">
          <mxGeometry x="96.45833333333306" y="320.4166666666667" width="30" height="19.999999999999886" as="geometry" />
        </mxCell>
        <mxCell id="127" value="Sub-detail" style="text;spacingTop=-5;fontSize=6;align=center;verticalAlign=middle;points=[]" parent="1" vertex="1">
          <mxGeometry x="39.51388888888878" y="360.9722222222222" width="30" height="19.999999999999886" as="geometry" />
        </mxCell>
        <mxCell id="128" value="Sub-detail" style="text;spacingTop=-5;fontSize=6;align=center;verticalAlign=middle;points=[]" parent="1" vertex="1">
          <mxGeometry x="74.51388888888863" y="360.9722222222223" width="30" height="19.999999999999886" as="geometry" />
        </mxCell>
        <mxCell id="129" value="Sub-detail" style="text;spacingTop=-5;fontSize=6;align=center;verticalAlign=middle;points=[]" parent="1" vertex="1">
          <mxGeometry x="127.986111111111" y="193.8888888888888" width="30" height="19.999999999999886" as="geometry" />
        </mxCell>
        <mxCell id="130" value="Sub-detail" style="text;spacingTop=-5;fontSize=6;align=center;verticalAlign=middle;points=[]" parent="1" vertex="1">
          <mxGeometry x="162.98611111111086" y="193.8888888888889" width="30" height="19.999999999999886" as="geometry" />
        </mxCell>
        <mxCell id="131" value="Sub-detail" style="text;spacingTop=-5;fontSize=6;align=center;verticalAlign=middle;points=[]" parent="1" vertex="1">
          <mxGeometry x="142.84722222222211" y="228.88888888888883" width="30" height="19.999999999999886" as="geometry" />
        </mxCell>
        <mxCell id="132" value="Sub-detail" style="text;spacingTop=-5;fontSize=6;align=center;verticalAlign=middle;points=[]" parent="1" vertex="1">
          <mxGeometry x="177.84722222222197" y="228.88888888888894" width="30" height="19.999999999999886" as="geometry" />
        </mxCell>
        <mxCell id="133" value="Sub-detail" style="text;spacingTop=-5;fontSize=6;align=center;verticalAlign=middle;points=[]" parent="1" vertex="1">
          <mxGeometry x="147.29166666666654" y="308.3333333333333" width="30" height="19.999999999999886" as="geometry" />
        </mxCell>
        <mxCell id="134" value="Sub-detail" style="text;spacingTop=-5;fontSize=6;align=center;verticalAlign=middle;points=[]" parent="1" vertex="1">
          <mxGeometry x="182.2916666666664" y="308.3333333333334" width="30" height="19.999999999999886" as="geometry" />
        </mxCell>
        <mxCell id="135" value="Sub-detail" style="text;spacingTop=-5;fontSize=6;align=center;verticalAlign=middle;points=[]" parent="1" vertex="1">
          <mxGeometry x="126.04166666666654" y="345.41666666666663" width="30" height="19.999999999999886" as="geometry" />
        </mxCell>
        <mxCell id="136" value="Sub-detail" style="text;spacingTop=-5;fontSize=6;align=center;verticalAlign=middle;points=[]" parent="1" vertex="1">
          <mxGeometry x="161.0416666666664" y="345.41666666666674" width="30" height="19.999999999999886" as="geometry" />
        </mxCell>
        <mxCell id="137" value="Detail" style="text;spacingTop=-5;fontSize=8;align=center;verticalAlign=middle;points=[]" parent="1" vertex="1">
          <mxGeometry x="166.04166666666654" y="180.97222222222229" width="30" height="19.999999999999886" as="geometry" />
        </mxCell>
        <mxCell id="138" value="Detail" style="text;spacingTop=-5;fontSize=8;align=center;verticalAlign=middle;points=[]" parent="1" vertex="1">
          <mxGeometry x="186.04166666666654" y="220.97222222222217" width="30" height="19.999999999999886" as="geometry" />
        </mxCell>
        <mxCell id="139" value="Detail" style="text;spacingTop=-5;fontSize=8;align=center;verticalAlign=middle;points=[]" parent="1" vertex="1">
          <mxGeometry x="206.04166666666654" y="260.97222222222234" width="30" height="19.999999999999886" as="geometry" />
        </mxCell>
        <mxCell id="140" value="Detail" style="text;spacingTop=-5;fontSize=8;align=center;verticalAlign=middle;points=[]" parent="1" vertex="1">
          <mxGeometry x="206.04166666666654" y="290.97222222222246" width="30" height="19.999999999999886" as="geometry" />
        </mxCell>
        <mxCell id="141" value="Detail" style="text;spacingTop=-5;fontSize=8;align=center;verticalAlign=middle;points=[]" parent="1" vertex="1">
          <mxGeometry x="186.0416666666665" y="340.97222222222206" width="30" height="19.999999999999886" as="geometry" />
        </mxCell>
        <mxCell id="142" value="Detail" style="text;spacingTop=-5;fontSize=8;align=center;verticalAlign=middle;points=[]" parent="1" vertex="1">
          <mxGeometry x="166.0416666666666" y="380.97222222222246" width="30" height="19.999999999999886" as="geometry" />
        </mxCell>
        <mxCell id="143" value="Organizacional" style="whiteSpace=wrap;strokeWidth=2" parent="1" vertex="1">
          <mxGeometry x="260" y="109.99999999999994" width="120" height="60" as="geometry" />
        </mxCell>
        <mxCell id="144" value="Social" style="whiteSpace=wrap;strokeWidth=2" parent="1" vertex="1">
          <mxGeometry x="260" y="399.99999999999994" width="120" height="60" as="geometry" />
        </mxCell>
        <mxCell id="145" value="" style="edgeStyle=none;exitX=0.5;exitY=1;strokeWidth=3" parent="1" source="143" edge="1">
          <mxGeometry width="100" height="100" relative="1" as="geometry">
            <mxPoint x="320" y="189.99999999999991" as="sourcePoint" />
            <mxPoint x="380" y="279.99999999999994" as="targetPoint" />
          </mxGeometry>
        </mxCell>
        <mxCell id="146" value="" style="edgeStyle=none;exitX=0.5;exitY=0;strokeWidth=3" parent="1" edge="1">
          <mxGeometry width="100" height="100" relative="1" as="geometry">
            <mxPoint x="320.0000000000001" y="399.99999999999994" as="sourcePoint" />
            <mxPoint x="380" y="279.99999999999994" as="targetPoint" />
          </mxGeometry>
        </mxCell>
        <mxCell id="147" value="" style="edgeStyle=none;endArrow=none;strokeWidth=2" parent="1" edge="1">
          <mxGeometry width="100" height="100" relative="1" as="geometry">
            <mxPoint x="270.0000000000001" y="189.99999999999991" as="sourcePoint" />
            <mxPoint x="330" y="189.99999999999991" as="targetPoint" />
          </mxGeometry>
        </mxCell>
        <mxCell id="148" value="" style="edgeStyle=none;endArrow=none;strokeWidth=2" parent="1" edge="1">
          <mxGeometry width="100" height="100" relative="1" as="geometry">
            <mxPoint x="290" y="225.99999999999991" as="sourcePoint" />
            <mxPoint x="349.9999999999999" y="225.99999999999991" as="targetPoint" />
          </mxGeometry>
        </mxCell>
        <mxCell id="149" value="" style="edgeStyle=none;endArrow=none;strokeWidth=2" parent="1" edge="1">
          <mxGeometry width="100" height="100" relative="1" as="geometry">
            <mxPoint x="310" y="259.99999999999994" as="sourcePoint" />
            <mxPoint x="370.0000000000001" y="259.99999999999994" as="targetPoint" />
          </mxGeometry>
        </mxCell>
        <mxCell id="150" value="" style="edgeStyle=none;endArrow=none;strokeWidth=2" parent="1" edge="1">
          <mxGeometry width="100" height="100" relative="1" as="geometry">
            <mxPoint x="330" y="189.99999999999991" as="sourcePoint" />
            <mxPoint x="390" y="189.99999999999991" as="targetPoint" />
          </mxGeometry>
        </mxCell>
        <mxCell id="151" value="" style="edgeStyle=none;endArrow=none;strokeWidth=2" parent="1" edge="1">
          <mxGeometry width="100" height="100" relative="1" as="geometry">
            <mxPoint x="349.9999999999999" y="225.99999999999991" as="sourcePoint" />
            <mxPoint x="410" y="225.99999999999991" as="targetPoint" />
          </mxGeometry>
        </mxCell>
        <mxCell id="152" value="" style="edgeStyle=none;endArrow=none;strokeWidth=2" parent="1" edge="1">
          <mxGeometry width="100" height="100" relative="1" as="geometry">
            <mxPoint x="370.0000000000001" y="259.99999999999994" as="sourcePoint" />
            <mxPoint x="430" y="259.99999999999994" as="targetPoint" />
          </mxGeometry>
        </mxCell>
        <mxCell id="153" value="" style="edgeStyle=none;endArrow=none;strokeWidth=2" parent="1" edge="1">
          <mxGeometry width="100" height="100" relative="1" as="geometry">
            <mxPoint x="310" y="299.99999999999994" as="sourcePoint" />
            <mxPoint x="370.0000000000001" y="299.99999999999994" as="targetPoint" />
          </mxGeometry>
        </mxCell>
        <mxCell id="154" value="" style="edgeStyle=none;endArrow=none;strokeWidth=2" parent="1" edge="1">
          <mxGeometry width="100" height="100" relative="1" as="geometry">
            <mxPoint x="290" y="339.99999999999994" as="sourcePoint" />
            <mxPoint x="349.9999999999999" y="339.99999999999994" as="targetPoint" />
          </mxGeometry>
        </mxCell>
        <mxCell id="155" value="" style="edgeStyle=none;endArrow=none;strokeWidth=2" parent="1" edge="1">
          <mxGeometry width="100" height="100" relative="1" as="geometry">
            <mxPoint x="270.0000000000001" y="379.99999999999994" as="sourcePoint" />
            <mxPoint x="330" y="379.99999999999994" as="targetPoint" />
          </mxGeometry>
        </mxCell>
        <mxCell id="156" value="" style="edgeStyle=none;endArrow=none;strokeWidth=2" parent="1" edge="1">
          <mxGeometry width="100" height="100" relative="1" as="geometry">
            <mxPoint x="370.0000000000001" y="299.99999999999994" as="sourcePoint" />
            <mxPoint x="430" y="299.99999999999994" as="targetPoint" />
          </mxGeometry>
        </mxCell>
        <mxCell id="157" value="" style="edgeStyle=none;endArrow=none;strokeWidth=2" parent="1" edge="1">
          <mxGeometry width="100" height="100" relative="1" as="geometry">
            <mxPoint x="349.9999999999999" y="339.99999999999994" as="sourcePoint" />
            <mxPoint x="410" y="339.99999999999994" as="targetPoint" />
          </mxGeometry>
        </mxCell>
        <mxCell id="158" value="" style="edgeStyle=none;endArrow=none;strokeWidth=2" parent="1" edge="1">
          <mxGeometry width="100" height="100" relative="1" as="geometry">
            <mxPoint x="330" y="379.99999999999994" as="sourcePoint" />
            <mxPoint x="390" y="379.99999999999994" as="targetPoint" />
          </mxGeometry>
        </mxCell>
        <mxCell id="159" value="" style="edgeStyle=none;endArrow=none;" parent="1" edge="1">
          <mxGeometry width="100" height="100" relative="1" as="geometry">
            <mxPoint x="299.9999999999999" y="209.9999999999998" as="sourcePoint" />
            <mxPoint x="320.0000000000001" y="189.99999999999991" as="targetPoint" />
          </mxGeometry>
        </mxCell>
        <mxCell id="160" value="" style="edgeStyle=none;endArrow=none;" parent="1" edge="1">
          <mxGeometry width="100" height="100" relative="1" as="geometry">
            <mxPoint x="270.0000000000001" y="209.9999999999998" as="sourcePoint" />
            <mxPoint x="290" y="189.99999999999991" as="targetPoint" />
          </mxGeometry>
        </mxCell>
        <mxCell id="161" value="" style="edgeStyle=none;endArrow=none;" parent="1" edge="1">
          <mxGeometry width="100" height="100" relative="1" as="geometry">
            <mxPoint x="380" y="259.99999999999994" as="sourcePoint" />
            <mxPoint x="399.9999999999999" y="239.99999999999991" as="targetPoint" />
          </mxGeometry>
        </mxCell>
        <mxCell id="162" value="" style="edgeStyle=none;endArrow=none;" parent="1" edge="1">
          <mxGeometry width="100" height="100" relative="1" as="geometry">
            <mxPoint x="410" y="259.99999999999994" as="sourcePoint" />
            <mxPoint x="430" y="239.99999999999991" as="targetPoint" />
          </mxGeometry>
        </mxCell>
        <mxCell id="163" value="" style="edgeStyle=none;endArrow=none;" parent="1" edge="1">
          <mxGeometry width="100" height="100" relative="1" as="geometry">
            <mxPoint x="359.51774691358037" y="226.36959876543202" as="sourcePoint" />
            <mxPoint x="379.51774691358025" y="206.3695987654319" as="targetPoint" />
          </mxGeometry>
        </mxCell>
        <mxCell id="164" value="" style="edgeStyle=none;endArrow=none;" parent="1" edge="1">
          <mxGeometry width="100" height="100" relative="1" as="geometry">
            <mxPoint x="389.51774691358014" y="226.36959876543202" as="sourcePoint" />
            <mxPoint x="409.51774691358037" y="206.3695987654319" as="targetPoint" />
          </mxGeometry>
        </mxCell>
        <mxCell id="165" value="" style="edgeStyle=none;endArrow=none;" parent="1" edge="1">
          <mxGeometry width="100" height="100" relative="1" as="geometry">
            <mxPoint x="319.51774691358025" y="246.3695987654318" as="sourcePoint" />
            <mxPoint x="339.51774691358014" y="226.36959876543202" as="targetPoint" />
          </mxGeometry>
        </mxCell>
        <mxCell id="166" value="" style="edgeStyle=none;endArrow=none;" parent="1" edge="1">
          <mxGeometry width="100" height="100" relative="1" as="geometry">
            <mxPoint x="289.51774691358014" y="246.3695987654318" as="sourcePoint" />
            <mxPoint x="309.51774691358037" y="226.36959876543202" as="targetPoint" />
          </mxGeometry>
        </mxCell>
        <mxCell id="167" value="" style="edgeStyle=none;endArrow=none;" parent="1" edge="1">
          <mxGeometry width="100" height="100" relative="1" as="geometry">
            <mxPoint x="370.0000000000001" y="379.99999999999994" as="sourcePoint" />
            <mxPoint x="390" y="359.99999999999994" as="targetPoint" />
          </mxGeometry>
        </mxCell>
        <mxCell id="168" value="" style="edgeStyle=none;endArrow=none;" parent="1" edge="1">
          <mxGeometry width="100" height="100" relative="1" as="geometry">
            <mxPoint x="340" y="379.99999999999994" as="sourcePoint" />
            <mxPoint x="360" y="359.99999999999994" as="targetPoint" />
          </mxGeometry>
        </mxCell>
        <mxCell id="169" value="" style="edgeStyle=none;endArrow=none;" parent="1" edge="1">
          <mxGeometry width="100" height="100" relative="1" as="geometry">
            <mxPoint x="390" y="339.99999999999994" as="sourcePoint" />
            <mxPoint x="410" y="319.99999999999994" as="targetPoint" />
          </mxGeometry>
        </mxCell>
        <mxCell id="170" value="" style="edgeStyle=none;endArrow=none;" parent="1" edge="1">
          <mxGeometry width="100" height="100" relative="1" as="geometry">
            <mxPoint x="360" y="339.99999999999994" as="sourcePoint" />
            <mxPoint x="380" y="319.99999999999994" as="targetPoint" />
          </mxGeometry>
        </mxCell>
        <mxCell id="171" value="" style="edgeStyle=none;endArrow=none;" parent="1" edge="1">
          <mxGeometry width="100" height="100" relative="1" as="geometry">
            <mxPoint x="320.0000000000001" y="359.99999999999994" as="sourcePoint" />
            <mxPoint x="340" y="339.99999999999994" as="targetPoint" />
          </mxGeometry>
        </mxCell>
        <mxCell id="172" value="" style="edgeStyle=none;endArrow=none;" parent="1" edge="1">
          <mxGeometry width="100" height="100" relative="1" as="geometry">
            <mxPoint x="320.0000000000001" y="359.99999999999994" as="sourcePoint" />
            <mxPoint x="340" y="339.99999999999994" as="targetPoint" />
          </mxGeometry>
        </mxCell>
        <mxCell id="173" value="" style="edgeStyle=none;endArrow=none;" parent="1" edge="1">
          <mxGeometry width="100" height="100" relative="1" as="geometry">
            <mxPoint x="290" y="359.99999999999994" as="sourcePoint" />
            <mxPoint x="310" y="339.99999999999994" as="targetPoint" />
          </mxGeometry>
        </mxCell>
        <mxCell id="174" value="" style="edgeStyle=none;endArrow=none;" parent="1" edge="1">
          <mxGeometry width="100" height="100" relative="1" as="geometry">
            <mxPoint x="340" y="319.99999999999994" as="sourcePoint" />
            <mxPoint x="360" y="299.99999999999994" as="targetPoint" />
          </mxGeometry>
        </mxCell>
        <mxCell id="175" value="" style="edgeStyle=none;endArrow=none;" parent="1" edge="1">
          <mxGeometry width="100" height="100" relative="1" as="geometry">
            <mxPoint x="310" y="319.99999999999994" as="sourcePoint" />
            <mxPoint x="330" y="299.99999999999994" as="targetPoint" />
          </mxGeometry>
        </mxCell>
        <mxCell id="176" value="Detail" style="text;spacingTop=-5;fontSize=8;align=center;verticalAlign=middle;points=[]" parent="1" vertex="1">
          <mxGeometry x="240.00000000000006" y="179.99999999999997" width="30" height="19.999999999999886" as="geometry" />
        </mxCell>
        <mxCell id="177" value="Detail" style="text;spacingTop=-5;fontSize=8;align=center;verticalAlign=middle;points=[]" parent="1" vertex="1">
          <mxGeometry x="260" y="219.99999999999986" width="30" height="19.999999999999886" as="geometry" />
        </mxCell>
        <mxCell id="178" value="Detail" style="text;spacingTop=-5;fontSize=8;align=center;verticalAlign=middle;points=[]" parent="1" vertex="1">
          <mxGeometry x="280" y="260.00000000000006" width="30" height="19.999999999999886" as="geometry" />
        </mxCell>
        <mxCell id="179" value="Detail" style="text;spacingTop=-5;fontSize=8;align=center;verticalAlign=middle;points=[]" parent="1" vertex="1">
          <mxGeometry x="280" y="290.00000000000017" width="30" height="19.999999999999886" as="geometry" />
        </mxCell>
        <mxCell id="180" value="Detail" style="text;spacingTop=-5;fontSize=8;align=center;verticalAlign=middle;points=[]" parent="1" vertex="1">
          <mxGeometry x="259.99999999999994" y="339.9999999999998" width="30" height="19.999999999999886" as="geometry" />
        </mxCell>
        <mxCell id="181" value="Detail" style="text;spacingTop=-5;fontSize=8;align=center;verticalAlign=middle;points=[]" parent="1" vertex="1">
          <mxGeometry x="240.0000000000001" y="380.00000000000017" width="30" height="19.999999999999886" as="geometry" />
        </mxCell>
        <mxCell id="182" value="Sub-detail" style="text;spacingTop=-5;fontSize=6;align=center;verticalAlign=middle;points=[]" parent="1" vertex="1">
          <mxGeometry x="255.00000000000009" y="209.99999999999986" width="30" height="19.999999999999886" as="geometry" />
        </mxCell>
        <mxCell id="183" value="Sub-detail" style="text;spacingTop=-5;fontSize=6;align=center;verticalAlign=middle;points=[]" parent="1" vertex="1">
          <mxGeometry x="289.99999999999994" y="209.9999999999999" width="30" height="19.999999999999886" as="geometry" />
        </mxCell>
        <mxCell id="184" value="Sub-detail" style="text;spacingTop=-5;fontSize=6;align=center;verticalAlign=middle;points=[]" parent="1" vertex="1">
          <mxGeometry x="268.05555555555554" y="246.52777777777763" width="30" height="19.999999999999886" as="geometry" />
        </mxCell>
        <mxCell id="185" value="Sub-detail" style="text;spacingTop=-5;fontSize=6;align=center;verticalAlign=middle;points=[]" parent="1" vertex="1">
          <mxGeometry x="303.05555555555543" y="246.52777777777774" width="30" height="19.999999999999886" as="geometry" />
        </mxCell>
        <mxCell id="186" value="Sub-detail" style="text;spacingTop=-5;fontSize=6;align=center;verticalAlign=middle;points=[]" parent="1" vertex="1">
          <mxGeometry x="285" y="320.4166666666665" width="30" height="19.999999999999886" as="geometry" />
        </mxCell>
        <mxCell id="187" value="Sub-detail" style="text;spacingTop=-5;fontSize=6;align=center;verticalAlign=middle;points=[]" parent="1" vertex="1">
          <mxGeometry x="319.99999999999983" y="320.41666666666663" width="30" height="19.999999999999886" as="geometry" />
        </mxCell>
        <mxCell id="188" value="Sub-detail" style="text;spacingTop=-5;fontSize=6;align=center;verticalAlign=middle;points=[]" parent="1" vertex="1">
          <mxGeometry x="263.05555555555554" y="360.9722222222221" width="30" height="19.999999999999886" as="geometry" />
        </mxCell>
        <mxCell id="189" value="Sub-detail" style="text;spacingTop=-5;fontSize=6;align=center;verticalAlign=middle;points=[]" parent="1" vertex="1">
          <mxGeometry x="298.05555555555543" y="360.97222222222223" width="30" height="19.999999999999886" as="geometry" />
        </mxCell>
        <mxCell id="190" value="Sub-detail" style="text;spacingTop=-5;fontSize=6;align=center;verticalAlign=middle;points=[]" parent="1" vertex="1">
          <mxGeometry x="351.52777777777777" y="193.88888888888872" width="30" height="19.999999999999886" as="geometry" />
        </mxCell>
        <mxCell id="191" value="Sub-detail" style="text;spacingTop=-5;fontSize=6;align=center;verticalAlign=middle;points=[]" parent="1" vertex="1">
          <mxGeometry x="386.5277777777776" y="193.88888888888883" width="30" height="19.999999999999886" as="geometry" />
        </mxCell>
        <mxCell id="192" value="Sub-detail" style="text;spacingTop=-5;fontSize=6;align=center;verticalAlign=middle;points=[]" parent="1" vertex="1">
          <mxGeometry x="366.3888888888889" y="228.88888888888874" width="30" height="19.999999999999886" as="geometry" />
        </mxCell>
        <mxCell id="193" value="Sub-detail" style="text;spacingTop=-5;fontSize=6;align=center;verticalAlign=middle;points=[]" parent="1" vertex="1">
          <mxGeometry x="401.38888888888874" y="228.88888888888886" width="30" height="19.999999999999886" as="geometry" />
        </mxCell>
        <mxCell id="194" value="Sub-detail" style="text;spacingTop=-5;fontSize=6;align=center;verticalAlign=middle;points=[]" parent="1" vertex="1">
          <mxGeometry x="370.8333333333333" y="308.33333333333326" width="30" height="19.999999999999886" as="geometry" />
        </mxCell>
        <mxCell id="195" value="Sub-detail" style="text;spacingTop=-5;fontSize=6;align=center;verticalAlign=middle;points=[]" parent="1" vertex="1">
          <mxGeometry x="405.83333333333314" y="308.33333333333337" width="30" height="19.999999999999886" as="geometry" />
        </mxCell>
        <mxCell id="196" value="Sub-detail" style="text;spacingTop=-5;fontSize=6;align=center;verticalAlign=middle;points=[]" parent="1" vertex="1">
          <mxGeometry x="349.5833333333333" y="345.4166666666666" width="30" height="19.999999999999886" as="geometry" />
        </mxCell>
        <mxCell id="197" value="Sub-detail" style="text;spacingTop=-5;fontSize=6;align=center;verticalAlign=middle;points=[]" parent="1" vertex="1">
          <mxGeometry x="384.58333333333314" y="345.4166666666667" width="30" height="19.999999999999886" as="geometry" />
        </mxCell>
        <mxCell id="198" value="Detail" style="text;spacingTop=-5;fontSize=8;align=center;verticalAlign=middle;points=[]" parent="1" vertex="1">
          <mxGeometry x="389.5833333333333" y="180.9722222222222" width="30" height="19.999999999999886" as="geometry" />
        </mxCell>
        <mxCell id="199" value="Detail" style="text;spacingTop=-5;fontSize=8;align=center;verticalAlign=middle;points=[]" parent="1" vertex="1">
          <mxGeometry x="409.5833333333333" y="220.9722222222221" width="30" height="19.999999999999886" as="geometry" />
        </mxCell>
        <mxCell id="200" value="Detail" style="text;spacingTop=-5;fontSize=8;align=center;verticalAlign=middle;points=[]" parent="1" vertex="1">
          <mxGeometry x="429.5833333333333" y="260.9722222222223" width="30" height="19.999999999999886" as="geometry" />
        </mxCell>
        <mxCell id="201" value="Detail" style="text;spacingTop=-5;fontSize=8;align=center;verticalAlign=middle;points=[]" parent="1" vertex="1">
          <mxGeometry x="429.5833333333333" y="290.9722222222224" width="30" height="19.999999999999886" as="geometry" />
        </mxCell>
        <mxCell id="202" value="Detail" style="text;spacingTop=-5;fontSize=8;align=center;verticalAlign=middle;points=[]" parent="1" vertex="1">
          <mxGeometry x="409.58333333333326" y="340.972222222222" width="30" height="19.999999999999886" as="geometry" />
        </mxCell>
        <mxCell id="203" value="Detail" style="text;spacingTop=-5;fontSize=8;align=center;verticalAlign=middle;points=[]" parent="1" vertex="1">
          <mxGeometry x="389.58333333333337" y="380.9722222222224" width="30" height="19.999999999999886" as="geometry" />
        </mxCell>
        <mxCell id="204" value="Técnico" style="whiteSpace=wrap;strokeWidth=2" parent="1" vertex="1">
          <mxGeometry x="475.8333333333331" y="111.52777777777752" width="120" height="60" as="geometry" />
        </mxCell>
        <mxCell id="205" value="Humano" style="whiteSpace=wrap;strokeWidth=2" parent="1" vertex="1">
          <mxGeometry x="475.8333333333331" y="401.52777777777754" width="120" height="60" as="geometry" />
        </mxCell>
        <mxCell id="206" value="" style="edgeStyle=none;exitX=0.5;exitY=1;strokeWidth=3" parent="1" source="204" edge="1">
          <mxGeometry width="100" height="100" relative="1" as="geometry">
            <mxPoint x="535.8333333333331" y="191.52777777777752" as="sourcePoint" />
            <mxPoint x="595.8333333333331" y="281.52777777777754" as="targetPoint" />
          </mxGeometry>
        </mxCell>
        <mxCell id="207" value="" style="edgeStyle=none;exitX=0.5;exitY=0;strokeWidth=3" parent="1" edge="1">
          <mxGeometry width="100" height="100" relative="1" as="geometry">
            <mxPoint x="535.8333333333333" y="401.52777777777754" as="sourcePoint" />
            <mxPoint x="595.8333333333331" y="281.52777777777754" as="targetPoint" />
          </mxGeometry>
        </mxCell>
        <mxCell id="208" value="" style="edgeStyle=none;endArrow=none;strokeWidth=2" parent="1" edge="1">
          <mxGeometry width="100" height="100" relative="1" as="geometry">
            <mxPoint x="485.8333333333332" y="191.52777777777752" as="sourcePoint" />
            <mxPoint x="545.8333333333331" y="191.52777777777752" as="targetPoint" />
          </mxGeometry>
        </mxCell>
        <mxCell id="209" value="" style="edgeStyle=none;endArrow=none;strokeWidth=2" parent="1" edge="1">
          <mxGeometry width="100" height="100" relative="1" as="geometry">
            <mxPoint x="505.8333333333331" y="227.52777777777752" as="sourcePoint" />
            <mxPoint x="565.833333333333" y="227.52777777777752" as="targetPoint" />
          </mxGeometry>
        </mxCell>
        <mxCell id="210" value="" style="edgeStyle=none;endArrow=none;strokeWidth=2" parent="1" edge="1">
          <mxGeometry width="100" height="100" relative="1" as="geometry">
            <mxPoint x="525.8333333333331" y="261.52777777777754" as="sourcePoint" />
            <mxPoint x="585.8333333333333" y="261.52777777777754" as="targetPoint" />
          </mxGeometry>
        </mxCell>
        <mxCell id="211" value="" style="edgeStyle=none;endArrow=none;strokeWidth=2" parent="1" edge="1">
          <mxGeometry width="100" height="100" relative="1" as="geometry">
            <mxPoint x="545.8333333333331" y="191.52777777777752" as="sourcePoint" />
            <mxPoint x="605.8333333333331" y="191.52777777777752" as="targetPoint" />
          </mxGeometry>
        </mxCell>
        <mxCell id="212" value="" style="edgeStyle=none;endArrow=none;strokeWidth=2" parent="1" edge="1">
          <mxGeometry width="100" height="100" relative="1" as="geometry">
            <mxPoint x="565.833333333333" y="227.52777777777752" as="sourcePoint" />
            <mxPoint x="625.8333333333331" y="227.52777777777752" as="targetPoint" />
          </mxGeometry>
        </mxCell>
        <mxCell id="213" value="" style="edgeStyle=none;endArrow=none;strokeWidth=2" parent="1" edge="1">
          <mxGeometry width="100" height="100" relative="1" as="geometry">
            <mxPoint x="585.8333333333333" y="261.52777777777754" as="sourcePoint" />
            <mxPoint x="645.8333333333331" y="261.52777777777754" as="targetPoint" />
          </mxGeometry>
        </mxCell>
        <mxCell id="214" value="" style="edgeStyle=none;endArrow=none;strokeWidth=2" parent="1" edge="1">
          <mxGeometry width="100" height="100" relative="1" as="geometry">
            <mxPoint x="525.8333333333331" y="301.52777777777754" as="sourcePoint" />
            <mxPoint x="585.8333333333333" y="301.52777777777754" as="targetPoint" />
          </mxGeometry>
        </mxCell>
        <mxCell id="215" value="" style="edgeStyle=none;endArrow=none;strokeWidth=2" parent="1" edge="1">
          <mxGeometry width="100" height="100" relative="1" as="geometry">
            <mxPoint x="505.8333333333331" y="341.52777777777754" as="sourcePoint" />
            <mxPoint x="565.833333333333" y="341.52777777777754" as="targetPoint" />
          </mxGeometry>
        </mxCell>
        <mxCell id="216" value="" style="edgeStyle=none;endArrow=none;strokeWidth=2" parent="1" edge="1">
          <mxGeometry width="100" height="100" relative="1" as="geometry">
            <mxPoint x="485.8333333333332" y="381.52777777777754" as="sourcePoint" />
            <mxPoint x="545.8333333333331" y="381.52777777777754" as="targetPoint" />
          </mxGeometry>
        </mxCell>
        <mxCell id="217" value="" style="edgeStyle=none;endArrow=none;strokeWidth=2" parent="1" edge="1">
          <mxGeometry width="100" height="100" relative="1" as="geometry">
            <mxPoint x="585.8333333333333" y="301.52777777777754" as="sourcePoint" />
            <mxPoint x="645.8333333333331" y="301.52777777777754" as="targetPoint" />
          </mxGeometry>
        </mxCell>
        <mxCell id="218" value="" style="edgeStyle=none;endArrow=none;strokeWidth=2" parent="1" edge="1">
          <mxGeometry width="100" height="100" relative="1" as="geometry">
            <mxPoint x="565.833333333333" y="341.52777777777754" as="sourcePoint" />
            <mxPoint x="625.8333333333331" y="341.52777777777754" as="targetPoint" />
          </mxGeometry>
        </mxCell>
        <mxCell id="219" value="" style="edgeStyle=none;endArrow=none;strokeWidth=2" parent="1" edge="1">
          <mxGeometry width="100" height="100" relative="1" as="geometry">
            <mxPoint x="545.8333333333331" y="381.52777777777754" as="sourcePoint" />
            <mxPoint x="605.8333333333331" y="381.52777777777754" as="targetPoint" />
          </mxGeometry>
        </mxCell>
        <mxCell id="220" value="" style="edgeStyle=none;endArrow=none;" parent="1" edge="1">
          <mxGeometry width="100" height="100" relative="1" as="geometry">
            <mxPoint x="515.833333333333" y="211.5277777777774" as="sourcePoint" />
            <mxPoint x="535.8333333333333" y="191.52777777777752" as="targetPoint" />
          </mxGeometry>
        </mxCell>
        <mxCell id="221" value="" style="edgeStyle=none;endArrow=none;" parent="1" edge="1">
          <mxGeometry width="100" height="100" relative="1" as="geometry">
            <mxPoint x="485.8333333333332" y="211.5277777777774" as="sourcePoint" />
            <mxPoint x="505.8333333333331" y="191.52777777777752" as="targetPoint" />
          </mxGeometry>
        </mxCell>
        <mxCell id="222" value="" style="edgeStyle=none;endArrow=none;" parent="1" edge="1">
          <mxGeometry width="100" height="100" relative="1" as="geometry">
            <mxPoint x="595.8333333333331" y="261.52777777777754" as="sourcePoint" />
            <mxPoint x="615.833333333333" y="241.52777777777752" as="targetPoint" />
          </mxGeometry>
        </mxCell>
        <mxCell id="223" value="" style="edgeStyle=none;endArrow=none;" parent="1" edge="1">
          <mxGeometry width="100" height="100" relative="1" as="geometry">
            <mxPoint x="625.8333333333331" y="261.52777777777754" as="sourcePoint" />
            <mxPoint x="645.8333333333331" y="241.52777777777752" as="targetPoint" />
          </mxGeometry>
        </mxCell>
        <mxCell id="224" value="" style="edgeStyle=none;endArrow=none;" parent="1" edge="1">
          <mxGeometry width="100" height="100" relative="1" as="geometry">
            <mxPoint x="575.3510802469135" y="227.89737654320962" as="sourcePoint" />
            <mxPoint x="595.3510802469134" y="207.8973765432095" as="targetPoint" />
          </mxGeometry>
        </mxCell>
        <mxCell id="225" value="" style="edgeStyle=none;endArrow=none;" parent="1" edge="1">
          <mxGeometry width="100" height="100" relative="1" as="geometry">
            <mxPoint x="605.3510802469133" y="227.89737654320962" as="sourcePoint" />
            <mxPoint x="625.3510802469135" y="207.8973765432095" as="targetPoint" />
          </mxGeometry>
        </mxCell>
        <mxCell id="226" value="" style="edgeStyle=none;endArrow=none;" parent="1" edge="1">
          <mxGeometry width="100" height="100" relative="1" as="geometry">
            <mxPoint x="535.3510802469134" y="247.8973765432094" as="sourcePoint" />
            <mxPoint x="555.3510802469133" y="227.89737654320962" as="targetPoint" />
          </mxGeometry>
        </mxCell>
        <mxCell id="227" value="" style="edgeStyle=none;endArrow=none;" parent="1" edge="1">
          <mxGeometry width="100" height="100" relative="1" as="geometry">
            <mxPoint x="505.3510802469132" y="247.8973765432094" as="sourcePoint" />
            <mxPoint x="525.3510802469135" y="227.89737654320962" as="targetPoint" />
          </mxGeometry>
        </mxCell>
        <mxCell id="228" value="" style="edgeStyle=none;endArrow=none;" parent="1" edge="1">
          <mxGeometry width="100" height="100" relative="1" as="geometry">
            <mxPoint x="585.8333333333333" y="381.52777777777754" as="sourcePoint" />
            <mxPoint x="605.8333333333331" y="361.52777777777754" as="targetPoint" />
          </mxGeometry>
        </mxCell>
        <mxCell id="229" value="" style="edgeStyle=none;endArrow=none;" parent="1" edge="1">
          <mxGeometry width="100" height="100" relative="1" as="geometry">
            <mxPoint x="555.8333333333331" y="381.52777777777754" as="sourcePoint" />
            <mxPoint x="575.8333333333331" y="361.52777777777754" as="targetPoint" />
          </mxGeometry>
        </mxCell>
        <mxCell id="230" value="" style="edgeStyle=none;endArrow=none;" parent="1" edge="1">
          <mxGeometry width="100" height="100" relative="1" as="geometry">
            <mxPoint x="605.8333333333331" y="341.52777777777754" as="sourcePoint" />
            <mxPoint x="625.8333333333331" y="321.52777777777754" as="targetPoint" />
          </mxGeometry>
        </mxCell>
        <mxCell id="231" value="" style="edgeStyle=none;endArrow=none;" parent="1" edge="1">
          <mxGeometry width="100" height="100" relative="1" as="geometry">
            <mxPoint x="575.8333333333331" y="341.52777777777754" as="sourcePoint" />
            <mxPoint x="595.8333333333331" y="321.52777777777754" as="targetPoint" />
          </mxGeometry>
        </mxCell>
        <mxCell id="232" value="" style="edgeStyle=none;endArrow=none;" parent="1" edge="1">
          <mxGeometry width="100" height="100" relative="1" as="geometry">
            <mxPoint x="535.8333333333333" y="361.52777777777754" as="sourcePoint" />
            <mxPoint x="555.8333333333331" y="341.52777777777754" as="targetPoint" />
          </mxGeometry>
        </mxCell>
        <mxCell id="233" value="" style="edgeStyle=none;endArrow=none;" parent="1" edge="1">
          <mxGeometry width="100" height="100" relative="1" as="geometry">
            <mxPoint x="535.8333333333333" y="361.52777777777754" as="sourcePoint" />
            <mxPoint x="555.8333333333331" y="341.52777777777754" as="targetPoint" />
          </mxGeometry>
        </mxCell>
        <mxCell id="234" value="" style="edgeStyle=none;endArrow=none;" parent="1" edge="1">
          <mxGeometry width="100" height="100" relative="1" as="geometry">
            <mxPoint x="505.8333333333331" y="361.52777777777754" as="sourcePoint" />
            <mxPoint x="525.8333333333331" y="341.52777777777754" as="targetPoint" />
          </mxGeometry>
        </mxCell>
        <mxCell id="235" value="" style="edgeStyle=none;endArrow=none;" parent="1" edge="1">
          <mxGeometry width="100" height="100" relative="1" as="geometry">
            <mxPoint x="555.8333333333331" y="321.52777777777754" as="sourcePoint" />
            <mxPoint x="575.8333333333331" y="301.52777777777754" as="targetPoint" />
          </mxGeometry>
        </mxCell>
        <mxCell id="236" value="" style="edgeStyle=none;endArrow=none;" parent="1" edge="1">
          <mxGeometry width="100" height="100" relative="1" as="geometry">
            <mxPoint x="525.8333333333331" y="321.52777777777754" as="sourcePoint" />
            <mxPoint x="545.8333333333331" y="301.52777777777754" as="targetPoint" />
          </mxGeometry>
        </mxCell>
        <mxCell id="237" value="Detail" style="text;spacingTop=-5;fontSize=8;align=center;verticalAlign=middle;points=[]" parent="1" vertex="1">
          <mxGeometry x="455.8333333333331" y="181.52777777777757" width="30" height="19.999999999999886" as="geometry" />
        </mxCell>
        <mxCell id="238" value="Detail" style="text;spacingTop=-5;fontSize=8;align=center;verticalAlign=middle;points=[]" parent="1" vertex="1">
          <mxGeometry x="475.8333333333331" y="221.52777777777746" width="30" height="19.999999999999886" as="geometry" />
        </mxCell>
        <mxCell id="239" value="Detail" style="text;spacingTop=-5;fontSize=8;align=center;verticalAlign=middle;points=[]" parent="1" vertex="1">
          <mxGeometry x="495.8333333333331" y="261.52777777777766" width="30" height="19.999999999999886" as="geometry" />
        </mxCell>
        <mxCell id="240" value="Detail" style="text;spacingTop=-5;fontSize=8;align=center;verticalAlign=middle;points=[]" parent="1" vertex="1">
          <mxGeometry x="495.8333333333331" y="291.52777777777777" width="30" height="19.999999999999886" as="geometry" />
        </mxCell>
        <mxCell id="241" value="Detail" style="text;spacingTop=-5;fontSize=8;align=center;verticalAlign=middle;points=[]" parent="1" vertex="1">
          <mxGeometry x="475.83333333333303" y="341.5277777777774" width="30" height="19.999999999999886" as="geometry" />
        </mxCell>
        <mxCell id="242" value="Detail" style="text;spacingTop=-5;fontSize=8;align=center;verticalAlign=middle;points=[]" parent="1" vertex="1">
          <mxGeometry x="455.8333333333332" y="381.52777777777777" width="30" height="19.999999999999886" as="geometry" />
        </mxCell>
        <mxCell id="243" value="Sub-detail" style="text;spacingTop=-5;fontSize=6;align=center;verticalAlign=middle;points=[]" parent="1" vertex="1">
          <mxGeometry x="470.8333333333332" y="211.52777777777746" width="30" height="19.999999999999886" as="geometry" />
        </mxCell>
        <mxCell id="244" value="Sub-detail" style="text;spacingTop=-5;fontSize=6;align=center;verticalAlign=middle;points=[]" parent="1" vertex="1">
          <mxGeometry x="505.8333333333331" y="211.5277777777775" width="30" height="19.999999999999886" as="geometry" />
        </mxCell>
        <mxCell id="245" value="Sub-detail" style="text;spacingTop=-5;fontSize=6;align=center;verticalAlign=middle;points=[]" parent="1" vertex="1">
          <mxGeometry x="483.88888888888863" y="248.05555555555523" width="30" height="19.999999999999886" as="geometry" />
        </mxCell>
        <mxCell id="246" value="Sub-detail" style="text;spacingTop=-5;fontSize=6;align=center;verticalAlign=middle;points=[]" parent="1" vertex="1">
          <mxGeometry x="518.8888888888886" y="248.05555555555534" width="30" height="19.999999999999886" as="geometry" />
        </mxCell>
        <mxCell id="247" value="Sub-detail" style="text;spacingTop=-5;fontSize=6;align=center;verticalAlign=middle;points=[]" parent="1" vertex="1">
          <mxGeometry x="500.8333333333331" y="321.9444444444441" width="30" height="19.999999999999886" as="geometry" />
        </mxCell>
        <mxCell id="248" value="Sub-detail" style="text;spacingTop=-5;fontSize=6;align=center;verticalAlign=middle;points=[]" parent="1" vertex="1">
          <mxGeometry x="535.833333333333" y="321.94444444444423" width="30" height="19.999999999999886" as="geometry" />
        </mxCell>
        <mxCell id="249" value="Sub-detail" style="text;spacingTop=-5;fontSize=6;align=center;verticalAlign=middle;points=[]" parent="1" vertex="1">
          <mxGeometry x="478.88888888888863" y="362.4999999999997" width="30" height="19.999999999999886" as="geometry" />
        </mxCell>
        <mxCell id="250" value="Sub-detail" style="text;spacingTop=-5;fontSize=6;align=center;verticalAlign=middle;points=[]" parent="1" vertex="1">
          <mxGeometry x="513.8888888888886" y="362.49999999999983" width="30" height="19.999999999999886" as="geometry" />
        </mxCell>
        <mxCell id="251" value="Sub-detail" style="text;spacingTop=-5;fontSize=6;align=center;verticalAlign=middle;points=[]" parent="1" vertex="1">
          <mxGeometry x="567.361111111111" y="195.41666666666632" width="30" height="19.999999999999886" as="geometry" />
        </mxCell>
        <mxCell id="252" value="Sub-detail" style="text;spacingTop=-5;fontSize=6;align=center;verticalAlign=middle;points=[]" parent="1" vertex="1">
          <mxGeometry x="602.3611111111107" y="195.41666666666643" width="30" height="19.999999999999886" as="geometry" />
        </mxCell>
        <mxCell id="253" value="Sub-detail" style="text;spacingTop=-5;fontSize=6;align=center;verticalAlign=middle;points=[]" parent="1" vertex="1">
          <mxGeometry x="582.2222222222221" y="230.41666666666634" width="30" height="19.999999999999886" as="geometry" />
        </mxCell>
        <mxCell id="254" value="Sub-detail" style="text;spacingTop=-5;fontSize=6;align=center;verticalAlign=middle;points=[]" parent="1" vertex="1">
          <mxGeometry x="617.222222222222" y="230.41666666666646" width="30" height="19.999999999999886" as="geometry" />
        </mxCell>
        <mxCell id="255" value="Sub-detail" style="text;spacingTop=-5;fontSize=6;align=center;verticalAlign=middle;points=[]" parent="1" vertex="1">
          <mxGeometry x="586.6666666666665" y="309.86111111111086" width="30" height="19.999999999999886" as="geometry" />
        </mxCell>
        <mxCell id="256" value="Sub-detail" style="text;spacingTop=-5;fontSize=6;align=center;verticalAlign=middle;points=[]" parent="1" vertex="1">
          <mxGeometry x="621.6666666666664" y="309.861111111111" width="30" height="19.999999999999886" as="geometry" />
        </mxCell>
        <mxCell id="257" value="Sub-detail" style="text;spacingTop=-5;fontSize=6;align=center;verticalAlign=middle;points=[]" parent="1" vertex="1">
          <mxGeometry x="565.4166666666665" y="346.9444444444442" width="30" height="19.999999999999886" as="geometry" />
        </mxCell>
        <mxCell id="258" value="Sub-detail" style="text;spacingTop=-5;fontSize=6;align=center;verticalAlign=middle;points=[]" parent="1" vertex="1">
          <mxGeometry x="600.4166666666664" y="346.9444444444443" width="30" height="19.999999999999886" as="geometry" />
        </mxCell>
        <mxCell id="259" value="Detail" style="text;spacingTop=-5;fontSize=8;align=center;verticalAlign=middle;points=[]" parent="1" vertex="1">
          <mxGeometry x="605.4166666666665" y="182.4999999999998" width="30" height="19.999999999999886" as="geometry" />
        </mxCell>
        <mxCell id="260" value="Detail" style="text;spacingTop=-5;fontSize=8;align=center;verticalAlign=middle;points=[]" parent="1" vertex="1">
          <mxGeometry x="625.4166666666665" y="222.4999999999997" width="30" height="19.999999999999886" as="geometry" />
        </mxCell>
        <mxCell id="261" value="Detail" style="text;spacingTop=-5;fontSize=8;align=center;verticalAlign=middle;points=[]" parent="1" vertex="1">
          <mxGeometry x="645.4166666666665" y="256.52777777777743" width="30" height="19.999999999999886" as="geometry" />
        </mxCell>
        <mxCell id="262" value="Detail" style="text;spacingTop=-5;fontSize=8;align=center;verticalAlign=middle;points=[]" parent="1" vertex="1">
          <mxGeometry x="645.4166666666665" y="292.5" width="30" height="19.999999999999886" as="geometry" />
        </mxCell>
        <mxCell id="263" value="Detail" style="text;spacingTop=-5;fontSize=8;align=center;verticalAlign=middle;points=[]" parent="1" vertex="1">
          <mxGeometry x="625.4166666666664" y="342.4999999999996" width="30" height="19.999999999999886" as="geometry" />
        </mxCell>
        <mxCell id="264" value="Detail" style="text;spacingTop=-5;fontSize=8;align=center;verticalAlign=middle;points=[]" parent="1" vertex="1">
          <mxGeometry x="605.4166666666665" y="382.5" width="30" height="19.999999999999886" as="geometry" />
        </mxCell>
        <mxCell id="2xIWleAzCl-OP4bqtPJO-264" value="Educacional" style="whiteSpace=wrap;strokeWidth=2" vertex="1" parent="1">
          <mxGeometry x="-165.00166666666678" y="110" width="120" height="60" as="geometry" />
        </mxCell>
        <mxCell id="2xIWleAzCl-OP4bqtPJO-265" value="Saúde" style="whiteSpace=wrap;strokeWidth=2" vertex="1" parent="1">
          <mxGeometry x="-165.00166666666678" y="400" width="120" height="60" as="geometry" />
        </mxCell>
        <mxCell id="2xIWleAzCl-OP4bqtPJO-266" value="" style="edgeStyle=none;exitX=0.5;exitY=1;strokeWidth=3" edge="1" parent="1" source="2xIWleAzCl-OP4bqtPJO-264">
          <mxGeometry width="100" height="100" relative="1" as="geometry">
            <mxPoint x="-105.00166666666678" y="190" as="sourcePoint" />
            <mxPoint x="-45.00166666666677" y="280" as="targetPoint" />
          </mxGeometry>
        </mxCell>
        <mxCell id="2xIWleAzCl-OP4bqtPJO-267" value="" style="edgeStyle=none;exitX=0.5;exitY=0;strokeWidth=3" edge="1" parent="1">
          <mxGeometry width="100" height="100" relative="1" as="geometry">
            <mxPoint x="-105.00166666666678" y="400" as="sourcePoint" />
            <mxPoint x="-45.00166666666677" y="280" as="targetPoint" />
          </mxGeometry>
        </mxCell>
        <mxCell id="2xIWleAzCl-OP4bqtPJO-268" value="" style="edgeStyle=none;endArrow=none;strokeWidth=2" edge="1" parent="1">
          <mxGeometry width="100" height="100" relative="1" as="geometry">
            <mxPoint x="-155.00166666666678" y="190" as="sourcePoint" />
            <mxPoint x="-95.00166666666678" y="190" as="targetPoint" />
          </mxGeometry>
        </mxCell>
        <mxCell id="2xIWleAzCl-OP4bqtPJO-269" value="" style="edgeStyle=none;endArrow=none;strokeWidth=2" edge="1" parent="1">
          <mxGeometry width="100" height="100" relative="1" as="geometry">
            <mxPoint x="-135.00166666666678" y="226" as="sourcePoint" />
            <mxPoint x="-75.00166666666678" y="226" as="targetPoint" />
          </mxGeometry>
        </mxCell>
        <mxCell id="2xIWleAzCl-OP4bqtPJO-270" value="" style="edgeStyle=none;endArrow=none;strokeWidth=2" edge="1" parent="1">
          <mxGeometry width="100" height="100" relative="1" as="geometry">
            <mxPoint x="-115.00166666666678" y="260" as="sourcePoint" />
            <mxPoint x="-55.001666666666765" y="260" as="targetPoint" />
          </mxGeometry>
        </mxCell>
        <mxCell id="2xIWleAzCl-OP4bqtPJO-271" value="" style="edgeStyle=none;endArrow=none;strokeWidth=2" edge="1" parent="1">
          <mxGeometry width="100" height="100" relative="1" as="geometry">
            <mxPoint x="-95.00166666666678" y="190" as="sourcePoint" />
            <mxPoint x="-35.00166666666677" y="190" as="targetPoint" />
          </mxGeometry>
        </mxCell>
        <mxCell id="2xIWleAzCl-OP4bqtPJO-272" value="" style="edgeStyle=none;endArrow=none;strokeWidth=2" edge="1" parent="1">
          <mxGeometry width="100" height="100" relative="1" as="geometry">
            <mxPoint x="-75.00166666666678" y="226" as="sourcePoint" />
            <mxPoint x="-15.001666666666772" y="226" as="targetPoint" />
          </mxGeometry>
        </mxCell>
        <mxCell id="2xIWleAzCl-OP4bqtPJO-273" value="" style="edgeStyle=none;endArrow=none;strokeWidth=2" edge="1" parent="1">
          <mxGeometry width="100" height="100" relative="1" as="geometry">
            <mxPoint x="-55.001666666666765" y="260" as="sourcePoint" />
            <mxPoint x="4.998333333333228" y="260" as="targetPoint" />
          </mxGeometry>
        </mxCell>
        <mxCell id="2xIWleAzCl-OP4bqtPJO-274" value="" style="edgeStyle=none;endArrow=none;strokeWidth=2" edge="1" parent="1">
          <mxGeometry width="100" height="100" relative="1" as="geometry">
            <mxPoint x="-115.00166666666678" y="300" as="sourcePoint" />
            <mxPoint x="-55.001666666666765" y="300" as="targetPoint" />
          </mxGeometry>
        </mxCell>
        <mxCell id="2xIWleAzCl-OP4bqtPJO-275" value="" style="edgeStyle=none;endArrow=none;strokeWidth=2" edge="1" parent="1">
          <mxGeometry width="100" height="100" relative="1" as="geometry">
            <mxPoint x="-135.00166666666678" y="340" as="sourcePoint" />
            <mxPoint x="-75.00166666666678" y="340" as="targetPoint" />
          </mxGeometry>
        </mxCell>
        <mxCell id="2xIWleAzCl-OP4bqtPJO-276" value="" style="edgeStyle=none;endArrow=none;strokeWidth=2" edge="1" parent="1">
          <mxGeometry width="100" height="100" relative="1" as="geometry">
            <mxPoint x="-155.00166666666678" y="380" as="sourcePoint" />
            <mxPoint x="-95.00166666666678" y="380" as="targetPoint" />
          </mxGeometry>
        </mxCell>
        <mxCell id="2xIWleAzCl-OP4bqtPJO-277" value="" style="edgeStyle=none;endArrow=none;strokeWidth=2" edge="1" parent="1">
          <mxGeometry width="100" height="100" relative="1" as="geometry">
            <mxPoint x="-55.001666666666765" y="300" as="sourcePoint" />
            <mxPoint x="4.998333333333228" y="300" as="targetPoint" />
          </mxGeometry>
        </mxCell>
        <mxCell id="2xIWleAzCl-OP4bqtPJO-278" value="" style="edgeStyle=none;endArrow=none;strokeWidth=2" edge="1" parent="1">
          <mxGeometry width="100" height="100" relative="1" as="geometry">
            <mxPoint x="-75.00166666666678" y="340" as="sourcePoint" />
            <mxPoint x="-15.001666666666772" y="340" as="targetPoint" />
          </mxGeometry>
        </mxCell>
        <mxCell id="2xIWleAzCl-OP4bqtPJO-279" value="" style="edgeStyle=none;endArrow=none;strokeWidth=2" edge="1" parent="1">
          <mxGeometry width="100" height="100" relative="1" as="geometry">
            <mxPoint x="-95.00166666666678" y="380" as="sourcePoint" />
            <mxPoint x="-35.00166666666677" y="380" as="targetPoint" />
          </mxGeometry>
        </mxCell>
        <mxCell id="2xIWleAzCl-OP4bqtPJO-280" value="" style="edgeStyle=none;endArrow=none;" edge="1" parent="1">
          <mxGeometry width="100" height="100" relative="1" as="geometry">
            <mxPoint x="-125.00166666666678" y="210" as="sourcePoint" />
            <mxPoint x="-105.00166666666678" y="190" as="targetPoint" />
          </mxGeometry>
        </mxCell>
        <mxCell id="2xIWleAzCl-OP4bqtPJO-281" value="" style="edgeStyle=none;endArrow=none;" edge="1" parent="1">
          <mxGeometry width="100" height="100" relative="1" as="geometry">
            <mxPoint x="-155.00166666666678" y="210" as="sourcePoint" />
            <mxPoint x="-135.00166666666678" y="190" as="targetPoint" />
          </mxGeometry>
        </mxCell>
        <mxCell id="2xIWleAzCl-OP4bqtPJO-282" value="" style="edgeStyle=none;endArrow=none;" edge="1" parent="1">
          <mxGeometry width="100" height="100" relative="1" as="geometry">
            <mxPoint x="-45.00166666666677" y="260" as="sourcePoint" />
            <mxPoint x="-25.00166666666677" y="240" as="targetPoint" />
          </mxGeometry>
        </mxCell>
        <mxCell id="2xIWleAzCl-OP4bqtPJO-283" value="" style="edgeStyle=none;endArrow=none;" edge="1" parent="1">
          <mxGeometry width="100" height="100" relative="1" as="geometry">
            <mxPoint x="-15.001666666666772" y="260" as="sourcePoint" />
            <mxPoint x="4.998333333333228" y="240" as="targetPoint" />
          </mxGeometry>
        </mxCell>
        <mxCell id="2xIWleAzCl-OP4bqtPJO-284" value="" style="edgeStyle=none;endArrow=none;" edge="1" parent="1">
          <mxGeometry width="100" height="100" relative="1" as="geometry">
            <mxPoint x="-65.48391975308652" y="226.36959876543202" as="sourcePoint" />
            <mxPoint x="-45.48391975308652" y="206.36959876543202" as="targetPoint" />
          </mxGeometry>
        </mxCell>
        <mxCell id="2xIWleAzCl-OP4bqtPJO-285" value="" style="edgeStyle=none;endArrow=none;" edge="1" parent="1">
          <mxGeometry width="100" height="100" relative="1" as="geometry">
            <mxPoint x="-35.48391975308652" y="226.36959876543202" as="sourcePoint" />
            <mxPoint x="-15.483919753086518" y="206.36959876543202" as="targetPoint" />
          </mxGeometry>
        </mxCell>
        <mxCell id="2xIWleAzCl-OP4bqtPJO-286" value="" style="edgeStyle=none;endArrow=none;" edge="1" parent="1">
          <mxGeometry width="100" height="100" relative="1" as="geometry">
            <mxPoint x="-105.48391975308652" y="246.369598765432" as="sourcePoint" />
            <mxPoint x="-85.48391975308652" y="226.36959876543202" as="targetPoint" />
          </mxGeometry>
        </mxCell>
        <mxCell id="2xIWleAzCl-OP4bqtPJO-287" value="" style="edgeStyle=none;endArrow=none;" edge="1" parent="1">
          <mxGeometry width="100" height="100" relative="1" as="geometry">
            <mxPoint x="-135.48391975308652" y="246.369598765432" as="sourcePoint" />
            <mxPoint x="-115.48391975308652" y="226.36959876543202" as="targetPoint" />
          </mxGeometry>
        </mxCell>
        <mxCell id="2xIWleAzCl-OP4bqtPJO-288" value="" style="edgeStyle=none;endArrow=none;" edge="1" parent="1">
          <mxGeometry width="100" height="100" relative="1" as="geometry">
            <mxPoint x="-55.001666666666765" y="380" as="sourcePoint" />
            <mxPoint x="-35.00166666666677" y="360" as="targetPoint" />
          </mxGeometry>
        </mxCell>
        <mxCell id="2xIWleAzCl-OP4bqtPJO-289" value="" style="edgeStyle=none;endArrow=none;" edge="1" parent="1">
          <mxGeometry width="100" height="100" relative="1" as="geometry">
            <mxPoint x="-85.00166666666678" y="380" as="sourcePoint" />
            <mxPoint x="-65.00166666666678" y="360" as="targetPoint" />
          </mxGeometry>
        </mxCell>
        <mxCell id="2xIWleAzCl-OP4bqtPJO-290" value="" style="edgeStyle=none;endArrow=none;" edge="1" parent="1">
          <mxGeometry width="100" height="100" relative="1" as="geometry">
            <mxPoint x="-35.00166666666677" y="340" as="sourcePoint" />
            <mxPoint x="-15.001666666666772" y="320" as="targetPoint" />
          </mxGeometry>
        </mxCell>
        <mxCell id="2xIWleAzCl-OP4bqtPJO-291" value="" style="edgeStyle=none;endArrow=none;" edge="1" parent="1">
          <mxGeometry width="100" height="100" relative="1" as="geometry">
            <mxPoint x="-65.00166666666678" y="340" as="sourcePoint" />
            <mxPoint x="-45.00166666666677" y="320" as="targetPoint" />
          </mxGeometry>
        </mxCell>
        <mxCell id="2xIWleAzCl-OP4bqtPJO-292" value="" style="edgeStyle=none;endArrow=none;" edge="1" parent="1">
          <mxGeometry width="100" height="100" relative="1" as="geometry">
            <mxPoint x="-105.00166666666678" y="360" as="sourcePoint" />
            <mxPoint x="-85.00166666666678" y="340" as="targetPoint" />
          </mxGeometry>
        </mxCell>
        <mxCell id="2xIWleAzCl-OP4bqtPJO-293" value="" style="edgeStyle=none;endArrow=none;" edge="1" parent="1">
          <mxGeometry width="100" height="100" relative="1" as="geometry">
            <mxPoint x="-105.00166666666678" y="360" as="sourcePoint" />
            <mxPoint x="-85.00166666666678" y="340" as="targetPoint" />
          </mxGeometry>
        </mxCell>
        <mxCell id="2xIWleAzCl-OP4bqtPJO-294" value="" style="edgeStyle=none;endArrow=none;" edge="1" parent="1">
          <mxGeometry width="100" height="100" relative="1" as="geometry">
            <mxPoint x="-135.00166666666678" y="360" as="sourcePoint" />
            <mxPoint x="-115.00166666666678" y="340" as="targetPoint" />
          </mxGeometry>
        </mxCell>
        <mxCell id="2xIWleAzCl-OP4bqtPJO-295" value="" style="edgeStyle=none;endArrow=none;" edge="1" parent="1">
          <mxGeometry width="100" height="100" relative="1" as="geometry">
            <mxPoint x="-85.00166666666678" y="320" as="sourcePoint" />
            <mxPoint x="-65.00166666666678" y="300" as="targetPoint" />
          </mxGeometry>
        </mxCell>
        <mxCell id="2xIWleAzCl-OP4bqtPJO-296" value="" style="edgeStyle=none;endArrow=none;" edge="1" parent="1">
          <mxGeometry width="100" height="100" relative="1" as="geometry">
            <mxPoint x="-115.00166666666678" y="320" as="sourcePoint" />
            <mxPoint x="-95.00166666666678" y="300" as="targetPoint" />
          </mxGeometry>
        </mxCell>
        <mxCell id="2xIWleAzCl-OP4bqtPJO-297" value="Detail" style="text;spacingTop=-5;fontSize=8;align=center;verticalAlign=middle;points=[]" vertex="1" parent="1">
          <mxGeometry x="-185.00166666666678" y="180.00000000000006" width="30" height="19.999999999999886" as="geometry" />
        </mxCell>
        <mxCell id="2xIWleAzCl-OP4bqtPJO-298" value="Detail" style="text;spacingTop=-5;fontSize=8;align=center;verticalAlign=middle;points=[]" vertex="1" parent="1">
          <mxGeometry x="-165.0016666666668" y="219.99999999999994" width="30" height="19.999999999999886" as="geometry" />
        </mxCell>
        <mxCell id="2xIWleAzCl-OP4bqtPJO-299" value="Detail" style="text;spacingTop=-5;fontSize=8;align=center;verticalAlign=middle;points=[]" vertex="1" parent="1">
          <mxGeometry x="-145.0016666666668" y="260.0000000000001" width="30" height="19.999999999999886" as="geometry" />
        </mxCell>
        <mxCell id="2xIWleAzCl-OP4bqtPJO-300" value="Detail" style="text;spacingTop=-5;fontSize=8;align=center;verticalAlign=middle;points=[]" vertex="1" parent="1">
          <mxGeometry x="-145.0016666666668" y="290.0000000000002" width="30" height="19.999999999999886" as="geometry" />
        </mxCell>
        <mxCell id="2xIWleAzCl-OP4bqtPJO-301" value="Detail" style="text;spacingTop=-5;fontSize=8;align=center;verticalAlign=middle;points=[]" vertex="1" parent="1">
          <mxGeometry x="-165.00166666666684" y="339.99999999999983" width="30" height="19.999999999999886" as="geometry" />
        </mxCell>
        <mxCell id="2xIWleAzCl-OP4bqtPJO-302" value="Detail" style="text;spacingTop=-5;fontSize=8;align=center;verticalAlign=middle;points=[]" vertex="1" parent="1">
          <mxGeometry x="-185.00166666666672" y="380.0000000000002" width="30" height="19.999999999999886" as="geometry" />
        </mxCell>
        <mxCell id="2xIWleAzCl-OP4bqtPJO-303" value="Sub-detail" style="text;spacingTop=-5;fontSize=6;align=center;verticalAlign=middle;points=[]" vertex="1" parent="1">
          <mxGeometry x="-170.0016666666667" y="209.99999999999994" width="30" height="19.999999999999886" as="geometry" />
        </mxCell>
        <mxCell id="2xIWleAzCl-OP4bqtPJO-304" value="Sub-detail" style="text;spacingTop=-5;fontSize=6;align=center;verticalAlign=middle;points=[]" vertex="1" parent="1">
          <mxGeometry x="-135.00166666666684" y="209.99999999999997" width="30" height="19.999999999999886" as="geometry" />
        </mxCell>
        <mxCell id="2xIWleAzCl-OP4bqtPJO-305" value="Sub-detail" style="text;spacingTop=-5;fontSize=6;align=center;verticalAlign=middle;points=[]" vertex="1" parent="1">
          <mxGeometry x="-156.94611111111124" y="246.52777777777771" width="30" height="19.999999999999886" as="geometry" />
        </mxCell>
        <mxCell id="2xIWleAzCl-OP4bqtPJO-306" value="Sub-detail" style="text;spacingTop=-5;fontSize=6;align=center;verticalAlign=middle;points=[]" vertex="1" parent="1">
          <mxGeometry x="-121.94611111111138" y="246.52777777777783" width="30" height="19.999999999999886" as="geometry" />
        </mxCell>
        <mxCell id="2xIWleAzCl-OP4bqtPJO-307" value="Sub-detail" style="text;spacingTop=-5;fontSize=6;align=center;verticalAlign=middle;points=[]" vertex="1" parent="1">
          <mxGeometry x="-140.00166666666678" y="320.4166666666666" width="30" height="19.999999999999886" as="geometry" />
        </mxCell>
        <mxCell id="2xIWleAzCl-OP4bqtPJO-308" value="Sub-detail" style="text;spacingTop=-5;fontSize=6;align=center;verticalAlign=middle;points=[]" vertex="1" parent="1">
          <mxGeometry x="-105.00166666666695" y="320.4166666666667" width="30" height="19.999999999999886" as="geometry" />
        </mxCell>
        <mxCell id="2xIWleAzCl-OP4bqtPJO-309" value="Sub-detail" style="text;spacingTop=-5;fontSize=6;align=center;verticalAlign=middle;points=[]" vertex="1" parent="1">
          <mxGeometry x="-161.94611111111124" y="360.9722222222222" width="30" height="19.999999999999886" as="geometry" />
        </mxCell>
        <mxCell id="2xIWleAzCl-OP4bqtPJO-310" value="Sub-detail" style="text;spacingTop=-5;fontSize=6;align=center;verticalAlign=middle;points=[]" vertex="1" parent="1">
          <mxGeometry x="-126.94611111111138" y="360.9722222222223" width="30" height="19.999999999999886" as="geometry" />
        </mxCell>
        <mxCell id="2xIWleAzCl-OP4bqtPJO-311" value="Sub-detail" style="text;spacingTop=-5;fontSize=6;align=center;verticalAlign=middle;points=[]" vertex="1" parent="1">
          <mxGeometry x="-73.47388888888901" y="193.8888888888888" width="30" height="19.999999999999886" as="geometry" />
        </mxCell>
        <mxCell id="2xIWleAzCl-OP4bqtPJO-312" value="Sub-detail" style="text;spacingTop=-5;fontSize=6;align=center;verticalAlign=middle;points=[]" vertex="1" parent="1">
          <mxGeometry x="-38.47388888888914" y="193.8888888888889" width="30" height="19.999999999999886" as="geometry" />
        </mxCell>
        <mxCell id="2xIWleAzCl-OP4bqtPJO-313" value="Sub-detail" style="text;spacingTop=-5;fontSize=6;align=center;verticalAlign=middle;points=[]" vertex="1" parent="1">
          <mxGeometry x="-58.61277777777788" y="228.88888888888883" width="30" height="19.999999999999886" as="geometry" />
        </mxCell>
        <mxCell id="2xIWleAzCl-OP4bqtPJO-314" value="Sub-detail" style="text;spacingTop=-5;fontSize=6;align=center;verticalAlign=middle;points=[]" vertex="1" parent="1">
          <mxGeometry x="-23.612777777778028" y="228.88888888888894" width="30" height="19.999999999999886" as="geometry" />
        </mxCell>
        <mxCell id="2xIWleAzCl-OP4bqtPJO-315" value="Sub-detail" style="text;spacingTop=-5;fontSize=6;align=center;verticalAlign=middle;points=[]" vertex="1" parent="1">
          <mxGeometry x="-54.16833333333345" y="308.3333333333333" width="30" height="19.999999999999886" as="geometry" />
        </mxCell>
        <mxCell id="2xIWleAzCl-OP4bqtPJO-316" value="Sub-detail" style="text;spacingTop=-5;fontSize=6;align=center;verticalAlign=middle;points=[]" vertex="1" parent="1">
          <mxGeometry x="-19.1683333333336" y="308.3333333333334" width="30" height="19.999999999999886" as="geometry" />
        </mxCell>
        <mxCell id="2xIWleAzCl-OP4bqtPJO-317" value="Sub-detail" style="text;spacingTop=-5;fontSize=6;align=center;verticalAlign=middle;points=[]" vertex="1" parent="1">
          <mxGeometry x="-75.41833333333346" y="345.41666666666663" width="30" height="19.999999999999886" as="geometry" />
        </mxCell>
        <mxCell id="2xIWleAzCl-OP4bqtPJO-318" value="Sub-detail" style="text;spacingTop=-5;fontSize=6;align=center;verticalAlign=middle;points=[]" vertex="1" parent="1">
          <mxGeometry x="-40.4183333333336" y="345.41666666666674" width="30" height="19.999999999999886" as="geometry" />
        </mxCell>
        <mxCell id="2xIWleAzCl-OP4bqtPJO-319" value="Detail" style="text;spacingTop=-5;fontSize=8;align=center;verticalAlign=middle;points=[]" vertex="1" parent="1">
          <mxGeometry x="-35.41833333333346" y="180.97222222222229" width="30" height="19.999999999999886" as="geometry" />
        </mxCell>
        <mxCell id="2xIWleAzCl-OP4bqtPJO-320" value="Detail" style="text;spacingTop=-5;fontSize=8;align=center;verticalAlign=middle;points=[]" vertex="1" parent="1">
          <mxGeometry x="-15.418333333333457" y="220.97222222222217" width="30" height="19.999999999999886" as="geometry" />
        </mxCell>
        <mxCell id="2xIWleAzCl-OP4bqtPJO-321" value="Detail" style="text;spacingTop=-5;fontSize=8;align=center;verticalAlign=middle;points=[]" vertex="1" parent="1">
          <mxGeometry x="4.581666666666543" y="260.9722222222223" width="30" height="19.999999999999886" as="geometry" />
        </mxCell>
        <mxCell id="2xIWleAzCl-OP4bqtPJO-322" value="Detail" style="text;spacingTop=-5;fontSize=8;align=center;verticalAlign=middle;points=[]" vertex="1" parent="1">
          <mxGeometry x="4.581666666666543" y="290.97222222222246" width="30" height="19.999999999999886" as="geometry" />
        </mxCell>
        <mxCell id="2xIWleAzCl-OP4bqtPJO-323" value="Detail" style="text;spacingTop=-5;fontSize=8;align=center;verticalAlign=middle;points=[]" vertex="1" parent="1">
          <mxGeometry x="-15.418333333333514" y="340.97222222222206" width="30" height="19.999999999999886" as="geometry" />
        </mxCell>
        <mxCell id="2xIWleAzCl-OP4bqtPJO-324" value="Detail" style="text;spacingTop=-5;fontSize=8;align=center;verticalAlign=middle;points=[]" vertex="1" parent="1">
          <mxGeometry x="-35.4183333333334" y="380.97222222222246" width="30" height="19.999999999999886" as="geometry" />
        </mxCell>
        <mxCell id="2xIWleAzCl-OP4bqtPJO-325" value="Político" style="whiteSpace=wrap;strokeWidth=2" vertex="1" parent="1">
          <mxGeometry x="-390.0016666666668" y="110" width="120" height="60" as="geometry" />
        </mxCell>
        <mxCell id="2xIWleAzCl-OP4bqtPJO-326" value="Ambiental" style="whiteSpace=wrap;strokeWidth=2" vertex="1" parent="1">
          <mxGeometry x="-390.0016666666668" y="400" width="120" height="60" as="geometry" />
        </mxCell>
        <mxCell id="2xIWleAzCl-OP4bqtPJO-327" value="" style="edgeStyle=none;exitX=0.5;exitY=1;strokeWidth=3" edge="1" parent="1" source="2xIWleAzCl-OP4bqtPJO-325">
          <mxGeometry width="100" height="100" relative="1" as="geometry">
            <mxPoint x="-330.0016666666668" y="190" as="sourcePoint" />
            <mxPoint x="-270.0016666666668" y="280" as="targetPoint" />
          </mxGeometry>
        </mxCell>
        <mxCell id="2xIWleAzCl-OP4bqtPJO-328" value="" style="edgeStyle=none;exitX=0.5;exitY=0;strokeWidth=3" edge="1" parent="1">
          <mxGeometry width="100" height="100" relative="1" as="geometry">
            <mxPoint x="-330.0016666666668" y="400" as="sourcePoint" />
            <mxPoint x="-270.0016666666668" y="280" as="targetPoint" />
          </mxGeometry>
        </mxCell>
        <mxCell id="2xIWleAzCl-OP4bqtPJO-329" value="" style="edgeStyle=none;endArrow=none;strokeWidth=2" edge="1" parent="1">
          <mxGeometry width="100" height="100" relative="1" as="geometry">
            <mxPoint x="-380.0016666666668" y="190" as="sourcePoint" />
            <mxPoint x="-320.0016666666668" y="190" as="targetPoint" />
          </mxGeometry>
        </mxCell>
        <mxCell id="2xIWleAzCl-OP4bqtPJO-330" value="" style="edgeStyle=none;endArrow=none;strokeWidth=2" edge="1" parent="1">
          <mxGeometry width="100" height="100" relative="1" as="geometry">
            <mxPoint x="-360.0016666666668" y="226" as="sourcePoint" />
            <mxPoint x="-300.0016666666668" y="226" as="targetPoint" />
          </mxGeometry>
        </mxCell>
        <mxCell id="2xIWleAzCl-OP4bqtPJO-331" value="" style="edgeStyle=none;endArrow=none;strokeWidth=2" edge="1" parent="1">
          <mxGeometry width="100" height="100" relative="1" as="geometry">
            <mxPoint x="-340.0016666666668" y="260" as="sourcePoint" />
            <mxPoint x="-280.0016666666668" y="260" as="targetPoint" />
          </mxGeometry>
        </mxCell>
        <mxCell id="2xIWleAzCl-OP4bqtPJO-332" value="" style="edgeStyle=none;endArrow=none;strokeWidth=2" edge="1" parent="1">
          <mxGeometry width="100" height="100" relative="1" as="geometry">
            <mxPoint x="-320.0016666666668" y="190" as="sourcePoint" />
            <mxPoint x="-260.0016666666668" y="190" as="targetPoint" />
          </mxGeometry>
        </mxCell>
        <mxCell id="2xIWleAzCl-OP4bqtPJO-333" value="" style="edgeStyle=none;endArrow=none;strokeWidth=2" edge="1" parent="1">
          <mxGeometry width="100" height="100" relative="1" as="geometry">
            <mxPoint x="-300.0016666666668" y="226" as="sourcePoint" />
            <mxPoint x="-240.00166666666678" y="226" as="targetPoint" />
          </mxGeometry>
        </mxCell>
        <mxCell id="2xIWleAzCl-OP4bqtPJO-334" value="" style="edgeStyle=none;endArrow=none;strokeWidth=2" edge="1" parent="1">
          <mxGeometry width="100" height="100" relative="1" as="geometry">
            <mxPoint x="-280.0016666666668" y="260" as="sourcePoint" />
            <mxPoint x="-220.00166666666678" y="260" as="targetPoint" />
          </mxGeometry>
        </mxCell>
        <mxCell id="2xIWleAzCl-OP4bqtPJO-335" value="" style="edgeStyle=none;endArrow=none;strokeWidth=2" edge="1" parent="1">
          <mxGeometry width="100" height="100" relative="1" as="geometry">
            <mxPoint x="-340.0016666666668" y="300" as="sourcePoint" />
            <mxPoint x="-280.0016666666668" y="300" as="targetPoint" />
          </mxGeometry>
        </mxCell>
        <mxCell id="2xIWleAzCl-OP4bqtPJO-336" value="" style="edgeStyle=none;endArrow=none;strokeWidth=2" edge="1" parent="1">
          <mxGeometry width="100" height="100" relative="1" as="geometry">
            <mxPoint x="-360.0016666666668" y="340" as="sourcePoint" />
            <mxPoint x="-300.0016666666668" y="340" as="targetPoint" />
          </mxGeometry>
        </mxCell>
        <mxCell id="2xIWleAzCl-OP4bqtPJO-337" value="" style="edgeStyle=none;endArrow=none;strokeWidth=2" edge="1" parent="1">
          <mxGeometry width="100" height="100" relative="1" as="geometry">
            <mxPoint x="-380.0016666666668" y="380" as="sourcePoint" />
            <mxPoint x="-320.0016666666668" y="380" as="targetPoint" />
          </mxGeometry>
        </mxCell>
        <mxCell id="2xIWleAzCl-OP4bqtPJO-338" value="" style="edgeStyle=none;endArrow=none;strokeWidth=2" edge="1" parent="1">
          <mxGeometry width="100" height="100" relative="1" as="geometry">
            <mxPoint x="-280.0016666666668" y="300" as="sourcePoint" />
            <mxPoint x="-220.00166666666678" y="300" as="targetPoint" />
          </mxGeometry>
        </mxCell>
        <mxCell id="2xIWleAzCl-OP4bqtPJO-339" value="" style="edgeStyle=none;endArrow=none;strokeWidth=2" edge="1" parent="1">
          <mxGeometry width="100" height="100" relative="1" as="geometry">
            <mxPoint x="-300.0016666666668" y="340" as="sourcePoint" />
            <mxPoint x="-240.00166666666678" y="340" as="targetPoint" />
          </mxGeometry>
        </mxCell>
        <mxCell id="2xIWleAzCl-OP4bqtPJO-340" value="" style="edgeStyle=none;endArrow=none;strokeWidth=2" edge="1" parent="1">
          <mxGeometry width="100" height="100" relative="1" as="geometry">
            <mxPoint x="-320.0016666666668" y="380" as="sourcePoint" />
            <mxPoint x="-260.0016666666668" y="380" as="targetPoint" />
          </mxGeometry>
        </mxCell>
        <mxCell id="2xIWleAzCl-OP4bqtPJO-341" value="" style="edgeStyle=none;endArrow=none;" edge="1" parent="1">
          <mxGeometry width="100" height="100" relative="1" as="geometry">
            <mxPoint x="-350.0016666666668" y="210" as="sourcePoint" />
            <mxPoint x="-330.0016666666668" y="190" as="targetPoint" />
          </mxGeometry>
        </mxCell>
        <mxCell id="2xIWleAzCl-OP4bqtPJO-342" value="" style="edgeStyle=none;endArrow=none;" edge="1" parent="1">
          <mxGeometry width="100" height="100" relative="1" as="geometry">
            <mxPoint x="-380.0016666666668" y="210" as="sourcePoint" />
            <mxPoint x="-360.0016666666668" y="190" as="targetPoint" />
          </mxGeometry>
        </mxCell>
        <mxCell id="2xIWleAzCl-OP4bqtPJO-343" value="" style="edgeStyle=none;endArrow=none;" edge="1" parent="1">
          <mxGeometry width="100" height="100" relative="1" as="geometry">
            <mxPoint x="-270.0016666666668" y="260" as="sourcePoint" />
            <mxPoint x="-250.00166666666678" y="240" as="targetPoint" />
          </mxGeometry>
        </mxCell>
        <mxCell id="2xIWleAzCl-OP4bqtPJO-344" value="" style="edgeStyle=none;endArrow=none;" edge="1" parent="1">
          <mxGeometry width="100" height="100" relative="1" as="geometry">
            <mxPoint x="-240.00166666666678" y="260" as="sourcePoint" />
            <mxPoint x="-220.00166666666678" y="240" as="targetPoint" />
          </mxGeometry>
        </mxCell>
        <mxCell id="2xIWleAzCl-OP4bqtPJO-345" value="" style="edgeStyle=none;endArrow=none;" edge="1" parent="1">
          <mxGeometry width="100" height="100" relative="1" as="geometry">
            <mxPoint x="-290.4839197530865" y="226.36959876543202" as="sourcePoint" />
            <mxPoint x="-270.4839197530865" y="206.36959876543202" as="targetPoint" />
          </mxGeometry>
        </mxCell>
        <mxCell id="2xIWleAzCl-OP4bqtPJO-346" value="" style="edgeStyle=none;endArrow=none;" edge="1" parent="1">
          <mxGeometry width="100" height="100" relative="1" as="geometry">
            <mxPoint x="-260.4839197530865" y="226.36959876543202" as="sourcePoint" />
            <mxPoint x="-240.48391975308652" y="206.36959876543202" as="targetPoint" />
          </mxGeometry>
        </mxCell>
        <mxCell id="2xIWleAzCl-OP4bqtPJO-347" value="" style="edgeStyle=none;endArrow=none;" edge="1" parent="1">
          <mxGeometry width="100" height="100" relative="1" as="geometry">
            <mxPoint x="-330.4839197530865" y="246.369598765432" as="sourcePoint" />
            <mxPoint x="-310.4839197530865" y="226.36959876543202" as="targetPoint" />
          </mxGeometry>
        </mxCell>
        <mxCell id="2xIWleAzCl-OP4bqtPJO-348" value="" style="edgeStyle=none;endArrow=none;" edge="1" parent="1">
          <mxGeometry width="100" height="100" relative="1" as="geometry">
            <mxPoint x="-360.4839197530865" y="246.369598765432" as="sourcePoint" />
            <mxPoint x="-340.4839197530865" y="226.36959876543202" as="targetPoint" />
          </mxGeometry>
        </mxCell>
        <mxCell id="2xIWleAzCl-OP4bqtPJO-349" value="" style="edgeStyle=none;endArrow=none;" edge="1" parent="1">
          <mxGeometry width="100" height="100" relative="1" as="geometry">
            <mxPoint x="-280.0016666666668" y="380" as="sourcePoint" />
            <mxPoint x="-260.0016666666668" y="360" as="targetPoint" />
          </mxGeometry>
        </mxCell>
        <mxCell id="2xIWleAzCl-OP4bqtPJO-350" value="" style="edgeStyle=none;endArrow=none;" edge="1" parent="1">
          <mxGeometry width="100" height="100" relative="1" as="geometry">
            <mxPoint x="-310.0016666666668" y="380" as="sourcePoint" />
            <mxPoint x="-290.0016666666668" y="360" as="targetPoint" />
          </mxGeometry>
        </mxCell>
        <mxCell id="2xIWleAzCl-OP4bqtPJO-351" value="" style="edgeStyle=none;endArrow=none;" edge="1" parent="1">
          <mxGeometry width="100" height="100" relative="1" as="geometry">
            <mxPoint x="-260.0016666666668" y="340" as="sourcePoint" />
            <mxPoint x="-240.00166666666678" y="320" as="targetPoint" />
          </mxGeometry>
        </mxCell>
        <mxCell id="2xIWleAzCl-OP4bqtPJO-352" value="" style="edgeStyle=none;endArrow=none;" edge="1" parent="1">
          <mxGeometry width="100" height="100" relative="1" as="geometry">
            <mxPoint x="-290.0016666666668" y="340" as="sourcePoint" />
            <mxPoint x="-270.0016666666668" y="320" as="targetPoint" />
          </mxGeometry>
        </mxCell>
        <mxCell id="2xIWleAzCl-OP4bqtPJO-353" value="" style="edgeStyle=none;endArrow=none;" edge="1" parent="1">
          <mxGeometry width="100" height="100" relative="1" as="geometry">
            <mxPoint x="-330.0016666666668" y="360" as="sourcePoint" />
            <mxPoint x="-310.0016666666668" y="340" as="targetPoint" />
          </mxGeometry>
        </mxCell>
        <mxCell id="2xIWleAzCl-OP4bqtPJO-354" value="" style="edgeStyle=none;endArrow=none;" edge="1" parent="1">
          <mxGeometry width="100" height="100" relative="1" as="geometry">
            <mxPoint x="-330.0016666666668" y="360" as="sourcePoint" />
            <mxPoint x="-310.0016666666668" y="340" as="targetPoint" />
          </mxGeometry>
        </mxCell>
        <mxCell id="2xIWleAzCl-OP4bqtPJO-355" value="" style="edgeStyle=none;endArrow=none;" edge="1" parent="1">
          <mxGeometry width="100" height="100" relative="1" as="geometry">
            <mxPoint x="-360.0016666666668" y="360" as="sourcePoint" />
            <mxPoint x="-340.0016666666668" y="340" as="targetPoint" />
          </mxGeometry>
        </mxCell>
        <mxCell id="2xIWleAzCl-OP4bqtPJO-356" value="" style="edgeStyle=none;endArrow=none;" edge="1" parent="1">
          <mxGeometry width="100" height="100" relative="1" as="geometry">
            <mxPoint x="-310.0016666666668" y="320" as="sourcePoint" />
            <mxPoint x="-290.0016666666668" y="300" as="targetPoint" />
          </mxGeometry>
        </mxCell>
        <mxCell id="2xIWleAzCl-OP4bqtPJO-357" value="" style="edgeStyle=none;endArrow=none;" edge="1" parent="1">
          <mxGeometry width="100" height="100" relative="1" as="geometry">
            <mxPoint x="-340.0016666666668" y="320" as="sourcePoint" />
            <mxPoint x="-320.0016666666668" y="300" as="targetPoint" />
          </mxGeometry>
        </mxCell>
        <mxCell id="2xIWleAzCl-OP4bqtPJO-358" value="Detail" style="text;spacingTop=-5;fontSize=8;align=center;verticalAlign=middle;points=[]" vertex="1" parent="1">
          <mxGeometry x="-410.0016666666668" y="180.00000000000006" width="30" height="19.999999999999886" as="geometry" />
        </mxCell>
        <mxCell id="2xIWleAzCl-OP4bqtPJO-359" value="Detail" style="text;spacingTop=-5;fontSize=8;align=center;verticalAlign=middle;points=[]" vertex="1" parent="1">
          <mxGeometry x="-390.0016666666668" y="219.99999999999994" width="30" height="19.999999999999886" as="geometry" />
        </mxCell>
        <mxCell id="2xIWleAzCl-OP4bqtPJO-360" value="Detail" style="text;spacingTop=-5;fontSize=8;align=center;verticalAlign=middle;points=[]" vertex="1" parent="1">
          <mxGeometry x="-370.0016666666668" y="260.0000000000001" width="30" height="19.999999999999886" as="geometry" />
        </mxCell>
        <mxCell id="2xIWleAzCl-OP4bqtPJO-361" value="Detail" style="text;spacingTop=-5;fontSize=8;align=center;verticalAlign=middle;points=[]" vertex="1" parent="1">
          <mxGeometry x="-370.0016666666668" y="290.0000000000002" width="30" height="19.999999999999886" as="geometry" />
        </mxCell>
        <mxCell id="2xIWleAzCl-OP4bqtPJO-362" value="Detail" style="text;spacingTop=-5;fontSize=8;align=center;verticalAlign=middle;points=[]" vertex="1" parent="1">
          <mxGeometry x="-390.00166666666684" y="339.99999999999983" width="30" height="19.999999999999886" as="geometry" />
        </mxCell>
        <mxCell id="2xIWleAzCl-OP4bqtPJO-363" value="Detail" style="text;spacingTop=-5;fontSize=8;align=center;verticalAlign=middle;points=[]" vertex="1" parent="1">
          <mxGeometry x="-410.0016666666667" y="380.0000000000002" width="30" height="19.999999999999886" as="geometry" />
        </mxCell>
        <mxCell id="2xIWleAzCl-OP4bqtPJO-364" value="Sub-detail" style="text;spacingTop=-5;fontSize=6;align=center;verticalAlign=middle;points=[]" vertex="1" parent="1">
          <mxGeometry x="-395.00166666666667" y="209.99999999999994" width="30" height="19.999999999999886" as="geometry" />
        </mxCell>
        <mxCell id="2xIWleAzCl-OP4bqtPJO-365" value="Sub-detail" style="text;spacingTop=-5;fontSize=6;align=center;verticalAlign=middle;points=[]" vertex="1" parent="1">
          <mxGeometry x="-360.00166666666684" y="209.99999999999997" width="30" height="19.999999999999886" as="geometry" />
        </mxCell>
        <mxCell id="2xIWleAzCl-OP4bqtPJO-366" value="Sub-detail" style="text;spacingTop=-5;fontSize=6;align=center;verticalAlign=middle;points=[]" vertex="1" parent="1">
          <mxGeometry x="-381.94611111111124" y="246.52777777777771" width="30" height="19.999999999999886" as="geometry" />
        </mxCell>
        <mxCell id="2xIWleAzCl-OP4bqtPJO-367" value="Sub-detail" style="text;spacingTop=-5;fontSize=6;align=center;verticalAlign=middle;points=[]" vertex="1" parent="1">
          <mxGeometry x="-346.94611111111135" y="246.52777777777783" width="30" height="19.999999999999886" as="geometry" />
        </mxCell>
        <mxCell id="2xIWleAzCl-OP4bqtPJO-368" value="Sub-detail" style="text;spacingTop=-5;fontSize=6;align=center;verticalAlign=middle;points=[]" vertex="1" parent="1">
          <mxGeometry x="-365.0016666666668" y="320.4166666666666" width="30" height="19.999999999999886" as="geometry" />
        </mxCell>
        <mxCell id="2xIWleAzCl-OP4bqtPJO-369" value="Sub-detail" style="text;spacingTop=-5;fontSize=6;align=center;verticalAlign=middle;points=[]" vertex="1" parent="1">
          <mxGeometry x="-330.00166666666695" y="320.4166666666667" width="30" height="19.999999999999886" as="geometry" />
        </mxCell>
        <mxCell id="2xIWleAzCl-OP4bqtPJO-370" value="Sub-detail" style="text;spacingTop=-5;fontSize=6;align=center;verticalAlign=middle;points=[]" vertex="1" parent="1">
          <mxGeometry x="-386.94611111111124" y="360.9722222222222" width="30" height="19.999999999999886" as="geometry" />
        </mxCell>
        <mxCell id="2xIWleAzCl-OP4bqtPJO-371" value="Sub-detail" style="text;spacingTop=-5;fontSize=6;align=center;verticalAlign=middle;points=[]" vertex="1" parent="1">
          <mxGeometry x="-351.94611111111135" y="360.9722222222223" width="30" height="19.999999999999886" as="geometry" />
        </mxCell>
        <mxCell id="2xIWleAzCl-OP4bqtPJO-372" value="Sub-detail" style="text;spacingTop=-5;fontSize=6;align=center;verticalAlign=middle;points=[]" vertex="1" parent="1">
          <mxGeometry x="-298.473888888889" y="193.8888888888888" width="30" height="19.999999999999886" as="geometry" />
        </mxCell>
        <mxCell id="2xIWleAzCl-OP4bqtPJO-373" value="Sub-detail" style="text;spacingTop=-5;fontSize=6;align=center;verticalAlign=middle;points=[]" vertex="1" parent="1">
          <mxGeometry x="-263.4738888888891" y="193.8888888888889" width="30" height="19.999999999999886" as="geometry" />
        </mxCell>
        <mxCell id="2xIWleAzCl-OP4bqtPJO-374" value="Sub-detail" style="text;spacingTop=-5;fontSize=6;align=center;verticalAlign=middle;points=[]" vertex="1" parent="1">
          <mxGeometry x="-283.61277777777786" y="228.88888888888883" width="30" height="19.999999999999886" as="geometry" />
        </mxCell>
        <mxCell id="2xIWleAzCl-OP4bqtPJO-375" value="Sub-detail" style="text;spacingTop=-5;fontSize=6;align=center;verticalAlign=middle;points=[]" vertex="1" parent="1">
          <mxGeometry x="-248.61277777777804" y="228.88888888888894" width="30" height="19.999999999999886" as="geometry" />
        </mxCell>
        <mxCell id="2xIWleAzCl-OP4bqtPJO-376" value="Sub-detail" style="text;spacingTop=-5;fontSize=6;align=center;verticalAlign=middle;points=[]" vertex="1" parent="1">
          <mxGeometry x="-279.16833333333346" y="308.3333333333333" width="30" height="19.999999999999886" as="geometry" />
        </mxCell>
        <mxCell id="2xIWleAzCl-OP4bqtPJO-377" value="Sub-detail" style="text;spacingTop=-5;fontSize=6;align=center;verticalAlign=middle;points=[]" vertex="1" parent="1">
          <mxGeometry x="-244.1683333333336" y="308.3333333333334" width="30" height="19.999999999999886" as="geometry" />
        </mxCell>
        <mxCell id="2xIWleAzCl-OP4bqtPJO-378" value="Sub-detail" style="text;spacingTop=-5;fontSize=6;align=center;verticalAlign=middle;points=[]" vertex="1" parent="1">
          <mxGeometry x="-300.41833333333346" y="345.41666666666663" width="30" height="19.999999999999886" as="geometry" />
        </mxCell>
        <mxCell id="2xIWleAzCl-OP4bqtPJO-379" value="Sub-detail" style="text;spacingTop=-5;fontSize=6;align=center;verticalAlign=middle;points=[]" vertex="1" parent="1">
          <mxGeometry x="-265.4183333333336" y="345.41666666666674" width="30" height="19.999999999999886" as="geometry" />
        </mxCell>
        <mxCell id="2xIWleAzCl-OP4bqtPJO-380" value="Detail" style="text;spacingTop=-5;fontSize=8;align=center;verticalAlign=middle;points=[]" vertex="1" parent="1">
          <mxGeometry x="-260.41833333333346" y="180.97222222222229" width="30" height="19.999999999999886" as="geometry" />
        </mxCell>
        <mxCell id="2xIWleAzCl-OP4bqtPJO-381" value="Detail" style="text;spacingTop=-5;fontSize=8;align=center;verticalAlign=middle;points=[]" vertex="1" parent="1">
          <mxGeometry x="-240.41833333333346" y="220.97222222222217" width="30" height="19.999999999999886" as="geometry" />
        </mxCell>
        <mxCell id="2xIWleAzCl-OP4bqtPJO-382" value="Detail" style="text;spacingTop=-5;fontSize=8;align=center;verticalAlign=middle;points=[]" vertex="1" parent="1">
          <mxGeometry x="-240.41833333333352" y="340.97222222222206" width="30" height="19.999999999999886" as="geometry" />
        </mxCell>
        <mxCell id="2xIWleAzCl-OP4bqtPJO-383" value="Detail" style="text;spacingTop=-5;fontSize=8;align=center;verticalAlign=middle;points=[]" vertex="1" parent="1">
          <mxGeometry x="-260.4183333333334" y="380.97222222222246" width="30" height="19.999999999999886" as="geometry" />
        </mxCell>
        <mxCell id="2xIWleAzCl-OP4bqtPJO-385" value="Cultural" style="whiteSpace=wrap;strokeWidth=2" vertex="1" parent="1">
          <mxGeometry x="-620.0016666666668" y="110" width="120" height="60" as="geometry" />
        </mxCell>
        <mxCell id="2xIWleAzCl-OP4bqtPJO-386" value="Tecnológico" style="whiteSpace=wrap;strokeWidth=2" vertex="1" parent="1">
          <mxGeometry x="-620.0016666666668" y="400" width="120" height="60" as="geometry" />
        </mxCell>
        <mxCell id="2xIWleAzCl-OP4bqtPJO-387" value="" style="edgeStyle=none;exitX=0.5;exitY=1;strokeWidth=3" edge="1" parent="1" source="2xIWleAzCl-OP4bqtPJO-385">
          <mxGeometry width="100" height="100" relative="1" as="geometry">
            <mxPoint x="-560.0016666666668" y="190" as="sourcePoint" />
            <mxPoint x="-500.0016666666668" y="280" as="targetPoint" />
          </mxGeometry>
        </mxCell>
        <mxCell id="2xIWleAzCl-OP4bqtPJO-388" value="" style="edgeStyle=none;exitX=0.5;exitY=0;strokeWidth=3" edge="1" parent="1">
          <mxGeometry width="100" height="100" relative="1" as="geometry">
            <mxPoint x="-560.0016666666668" y="400" as="sourcePoint" />
            <mxPoint x="-500.0016666666668" y="280" as="targetPoint" />
          </mxGeometry>
        </mxCell>
        <mxCell id="2xIWleAzCl-OP4bqtPJO-389" value="" style="edgeStyle=none;endArrow=none;strokeWidth=2" edge="1" parent="1">
          <mxGeometry width="100" height="100" relative="1" as="geometry">
            <mxPoint x="-610.0016666666668" y="190" as="sourcePoint" />
            <mxPoint x="-550.0016666666668" y="190" as="targetPoint" />
          </mxGeometry>
        </mxCell>
        <mxCell id="2xIWleAzCl-OP4bqtPJO-390" value="" style="edgeStyle=none;endArrow=none;strokeWidth=2" edge="1" parent="1">
          <mxGeometry width="100" height="100" relative="1" as="geometry">
            <mxPoint x="-590.0016666666668" y="226" as="sourcePoint" />
            <mxPoint x="-530.0016666666668" y="226" as="targetPoint" />
          </mxGeometry>
        </mxCell>
        <mxCell id="2xIWleAzCl-OP4bqtPJO-391" value="" style="edgeStyle=none;endArrow=none;strokeWidth=2" edge="1" parent="1">
          <mxGeometry width="100" height="100" relative="1" as="geometry">
            <mxPoint x="-570.0016666666668" y="260" as="sourcePoint" />
            <mxPoint x="-510.0016666666668" y="260" as="targetPoint" />
          </mxGeometry>
        </mxCell>
        <mxCell id="2xIWleAzCl-OP4bqtPJO-392" value="" style="edgeStyle=none;endArrow=none;strokeWidth=2" edge="1" parent="1">
          <mxGeometry width="100" height="100" relative="1" as="geometry">
            <mxPoint x="-550.0016666666668" y="190" as="sourcePoint" />
            <mxPoint x="-490.0016666666668" y="190" as="targetPoint" />
          </mxGeometry>
        </mxCell>
        <mxCell id="2xIWleAzCl-OP4bqtPJO-393" value="" style="edgeStyle=none;endArrow=none;strokeWidth=2" edge="1" parent="1">
          <mxGeometry width="100" height="100" relative="1" as="geometry">
            <mxPoint x="-530.0016666666668" y="226" as="sourcePoint" />
            <mxPoint x="-470.0016666666668" y="226" as="targetPoint" />
          </mxGeometry>
        </mxCell>
        <mxCell id="2xIWleAzCl-OP4bqtPJO-394" value="" style="edgeStyle=none;endArrow=none;strokeWidth=2" edge="1" parent="1">
          <mxGeometry width="100" height="100" relative="1" as="geometry">
            <mxPoint x="-510.0016666666668" y="260" as="sourcePoint" />
            <mxPoint x="-450.0016666666668" y="260" as="targetPoint" />
          </mxGeometry>
        </mxCell>
        <mxCell id="2xIWleAzCl-OP4bqtPJO-395" value="" style="edgeStyle=none;endArrow=none;strokeWidth=2" edge="1" parent="1">
          <mxGeometry width="100" height="100" relative="1" as="geometry">
            <mxPoint x="-570.0016666666668" y="300" as="sourcePoint" />
            <mxPoint x="-510.0016666666668" y="300" as="targetPoint" />
          </mxGeometry>
        </mxCell>
        <mxCell id="2xIWleAzCl-OP4bqtPJO-396" value="" style="edgeStyle=none;endArrow=none;strokeWidth=2" edge="1" parent="1">
          <mxGeometry width="100" height="100" relative="1" as="geometry">
            <mxPoint x="-590.0016666666668" y="340" as="sourcePoint" />
            <mxPoint x="-530.0016666666668" y="340" as="targetPoint" />
          </mxGeometry>
        </mxCell>
        <mxCell id="2xIWleAzCl-OP4bqtPJO-397" value="" style="edgeStyle=none;endArrow=none;strokeWidth=2" edge="1" parent="1">
          <mxGeometry width="100" height="100" relative="1" as="geometry">
            <mxPoint x="-610.0016666666668" y="380" as="sourcePoint" />
            <mxPoint x="-550.0016666666668" y="380" as="targetPoint" />
          </mxGeometry>
        </mxCell>
        <mxCell id="2xIWleAzCl-OP4bqtPJO-398" value="" style="edgeStyle=none;endArrow=none;strokeWidth=2" edge="1" parent="1">
          <mxGeometry width="100" height="100" relative="1" as="geometry">
            <mxPoint x="-510.0016666666668" y="300" as="sourcePoint" />
            <mxPoint x="-450.0016666666668" y="300" as="targetPoint" />
          </mxGeometry>
        </mxCell>
        <mxCell id="2xIWleAzCl-OP4bqtPJO-399" value="" style="edgeStyle=none;endArrow=none;strokeWidth=2" edge="1" parent="1">
          <mxGeometry width="100" height="100" relative="1" as="geometry">
            <mxPoint x="-530.0016666666668" y="340" as="sourcePoint" />
            <mxPoint x="-470.0016666666668" y="340" as="targetPoint" />
          </mxGeometry>
        </mxCell>
        <mxCell id="2xIWleAzCl-OP4bqtPJO-400" value="" style="edgeStyle=none;endArrow=none;strokeWidth=2" edge="1" parent="1">
          <mxGeometry width="100" height="100" relative="1" as="geometry">
            <mxPoint x="-550.0016666666668" y="380" as="sourcePoint" />
            <mxPoint x="-490.0016666666668" y="380" as="targetPoint" />
          </mxGeometry>
        </mxCell>
        <mxCell id="2xIWleAzCl-OP4bqtPJO-401" value="" style="edgeStyle=none;endArrow=none;" edge="1" parent="1">
          <mxGeometry width="100" height="100" relative="1" as="geometry">
            <mxPoint x="-580.0016666666668" y="210" as="sourcePoint" />
            <mxPoint x="-560.0016666666668" y="190" as="targetPoint" />
          </mxGeometry>
        </mxCell>
        <mxCell id="2xIWleAzCl-OP4bqtPJO-402" value="" style="edgeStyle=none;endArrow=none;" edge="1" parent="1">
          <mxGeometry width="100" height="100" relative="1" as="geometry">
            <mxPoint x="-610.0016666666668" y="210" as="sourcePoint" />
            <mxPoint x="-590.0016666666668" y="190" as="targetPoint" />
          </mxGeometry>
        </mxCell>
        <mxCell id="2xIWleAzCl-OP4bqtPJO-403" value="" style="edgeStyle=none;endArrow=none;" edge="1" parent="1">
          <mxGeometry width="100" height="100" relative="1" as="geometry">
            <mxPoint x="-500.0016666666668" y="260" as="sourcePoint" />
            <mxPoint x="-480.0016666666668" y="240" as="targetPoint" />
          </mxGeometry>
        </mxCell>
        <mxCell id="2xIWleAzCl-OP4bqtPJO-404" value="" style="edgeStyle=none;endArrow=none;" edge="1" parent="1">
          <mxGeometry width="100" height="100" relative="1" as="geometry">
            <mxPoint x="-470.0016666666668" y="260" as="sourcePoint" />
            <mxPoint x="-450.0016666666668" y="240" as="targetPoint" />
          </mxGeometry>
        </mxCell>
        <mxCell id="2xIWleAzCl-OP4bqtPJO-405" value="" style="edgeStyle=none;endArrow=none;" edge="1" parent="1">
          <mxGeometry width="100" height="100" relative="1" as="geometry">
            <mxPoint x="-520.4839197530865" y="226.36959876543202" as="sourcePoint" />
            <mxPoint x="-500.4839197530865" y="206.36959876543202" as="targetPoint" />
          </mxGeometry>
        </mxCell>
        <mxCell id="2xIWleAzCl-OP4bqtPJO-406" value="" style="edgeStyle=none;endArrow=none;" edge="1" parent="1">
          <mxGeometry width="100" height="100" relative="1" as="geometry">
            <mxPoint x="-490.4839197530865" y="226.36959876543202" as="sourcePoint" />
            <mxPoint x="-470.4839197530865" y="206.36959876543202" as="targetPoint" />
          </mxGeometry>
        </mxCell>
        <mxCell id="2xIWleAzCl-OP4bqtPJO-407" value="" style="edgeStyle=none;endArrow=none;" edge="1" parent="1">
          <mxGeometry width="100" height="100" relative="1" as="geometry">
            <mxPoint x="-560.4839197530865" y="246.369598765432" as="sourcePoint" />
            <mxPoint x="-540.4839197530865" y="226.36959876543202" as="targetPoint" />
          </mxGeometry>
        </mxCell>
        <mxCell id="2xIWleAzCl-OP4bqtPJO-408" value="" style="edgeStyle=none;endArrow=none;" edge="1" parent="1">
          <mxGeometry width="100" height="100" relative="1" as="geometry">
            <mxPoint x="-590.4839197530865" y="246.369598765432" as="sourcePoint" />
            <mxPoint x="-570.4839197530865" y="226.36959876543202" as="targetPoint" />
          </mxGeometry>
        </mxCell>
        <mxCell id="2xIWleAzCl-OP4bqtPJO-409" value="" style="edgeStyle=none;endArrow=none;" edge="1" parent="1">
          <mxGeometry width="100" height="100" relative="1" as="geometry">
            <mxPoint x="-510.0016666666668" y="380" as="sourcePoint" />
            <mxPoint x="-490.0016666666668" y="360" as="targetPoint" />
          </mxGeometry>
        </mxCell>
        <mxCell id="2xIWleAzCl-OP4bqtPJO-410" value="" style="edgeStyle=none;endArrow=none;" edge="1" parent="1">
          <mxGeometry width="100" height="100" relative="1" as="geometry">
            <mxPoint x="-540.0016666666668" y="380" as="sourcePoint" />
            <mxPoint x="-520.0016666666668" y="360" as="targetPoint" />
          </mxGeometry>
        </mxCell>
        <mxCell id="2xIWleAzCl-OP4bqtPJO-411" value="" style="edgeStyle=none;endArrow=none;" edge="1" parent="1">
          <mxGeometry width="100" height="100" relative="1" as="geometry">
            <mxPoint x="-490.0016666666668" y="340" as="sourcePoint" />
            <mxPoint x="-470.0016666666668" y="320" as="targetPoint" />
          </mxGeometry>
        </mxCell>
        <mxCell id="2xIWleAzCl-OP4bqtPJO-412" value="" style="edgeStyle=none;endArrow=none;" edge="1" parent="1">
          <mxGeometry width="100" height="100" relative="1" as="geometry">
            <mxPoint x="-520.0016666666668" y="340" as="sourcePoint" />
            <mxPoint x="-500.0016666666668" y="320" as="targetPoint" />
          </mxGeometry>
        </mxCell>
        <mxCell id="2xIWleAzCl-OP4bqtPJO-413" value="" style="edgeStyle=none;endArrow=none;" edge="1" parent="1">
          <mxGeometry width="100" height="100" relative="1" as="geometry">
            <mxPoint x="-560.0016666666668" y="360" as="sourcePoint" />
            <mxPoint x="-540.0016666666668" y="340" as="targetPoint" />
          </mxGeometry>
        </mxCell>
        <mxCell id="2xIWleAzCl-OP4bqtPJO-414" value="" style="edgeStyle=none;endArrow=none;" edge="1" parent="1">
          <mxGeometry width="100" height="100" relative="1" as="geometry">
            <mxPoint x="-560.0016666666668" y="360" as="sourcePoint" />
            <mxPoint x="-540.0016666666668" y="340" as="targetPoint" />
          </mxGeometry>
        </mxCell>
        <mxCell id="2xIWleAzCl-OP4bqtPJO-415" value="" style="edgeStyle=none;endArrow=none;" edge="1" parent="1">
          <mxGeometry width="100" height="100" relative="1" as="geometry">
            <mxPoint x="-590.0016666666668" y="360" as="sourcePoint" />
            <mxPoint x="-570.0016666666668" y="340" as="targetPoint" />
          </mxGeometry>
        </mxCell>
        <mxCell id="2xIWleAzCl-OP4bqtPJO-416" value="" style="edgeStyle=none;endArrow=none;" edge="1" parent="1">
          <mxGeometry width="100" height="100" relative="1" as="geometry">
            <mxPoint x="-540.0016666666668" y="320" as="sourcePoint" />
            <mxPoint x="-520.0016666666668" y="300" as="targetPoint" />
          </mxGeometry>
        </mxCell>
        <mxCell id="2xIWleAzCl-OP4bqtPJO-417" value="" style="edgeStyle=none;endArrow=none;" edge="1" parent="1">
          <mxGeometry width="100" height="100" relative="1" as="geometry">
            <mxPoint x="-570.0016666666668" y="320" as="sourcePoint" />
            <mxPoint x="-550.0016666666668" y="300" as="targetPoint" />
          </mxGeometry>
        </mxCell>
        <mxCell id="2xIWleAzCl-OP4bqtPJO-418" value="Detail" style="text;spacingTop=-5;fontSize=8;align=center;verticalAlign=middle;points=[]" vertex="1" parent="1">
          <mxGeometry x="-640.0016666666668" y="180.00000000000006" width="30" height="19.999999999999886" as="geometry" />
        </mxCell>
        <mxCell id="2xIWleAzCl-OP4bqtPJO-419" value="Detail" style="text;spacingTop=-5;fontSize=8;align=center;verticalAlign=middle;points=[]" vertex="1" parent="1">
          <mxGeometry x="-620.0016666666668" y="219.99999999999994" width="30" height="19.999999999999886" as="geometry" />
        </mxCell>
        <mxCell id="2xIWleAzCl-OP4bqtPJO-420" value="Detail" style="text;spacingTop=-5;fontSize=8;align=center;verticalAlign=middle;points=[]" vertex="1" parent="1">
          <mxGeometry x="-600.0016666666668" y="260.0000000000001" width="30" height="19.999999999999886" as="geometry" />
        </mxCell>
        <mxCell id="2xIWleAzCl-OP4bqtPJO-421" value="Detail" style="text;spacingTop=-5;fontSize=8;align=center;verticalAlign=middle;points=[]" vertex="1" parent="1">
          <mxGeometry x="-600.0016666666668" y="290.0000000000002" width="30" height="19.999999999999886" as="geometry" />
        </mxCell>
        <mxCell id="2xIWleAzCl-OP4bqtPJO-422" value="Detail" style="text;spacingTop=-5;fontSize=8;align=center;verticalAlign=middle;points=[]" vertex="1" parent="1">
          <mxGeometry x="-620.0016666666668" y="339.99999999999983" width="30" height="19.999999999999886" as="geometry" />
        </mxCell>
        <mxCell id="2xIWleAzCl-OP4bqtPJO-423" value="Detail" style="text;spacingTop=-5;fontSize=8;align=center;verticalAlign=middle;points=[]" vertex="1" parent="1">
          <mxGeometry x="-640.0016666666668" y="380.0000000000002" width="30" height="19.999999999999886" as="geometry" />
        </mxCell>
        <mxCell id="2xIWleAzCl-OP4bqtPJO-424" value="Sub-detail" style="text;spacingTop=-5;fontSize=6;align=center;verticalAlign=middle;points=[]" vertex="1" parent="1">
          <mxGeometry x="-625.0016666666667" y="209.99999999999994" width="30" height="19.999999999999886" as="geometry" />
        </mxCell>
        <mxCell id="2xIWleAzCl-OP4bqtPJO-425" value="Sub-detail" style="text;spacingTop=-5;fontSize=6;align=center;verticalAlign=middle;points=[]" vertex="1" parent="1">
          <mxGeometry x="-590.0016666666668" y="209.99999999999997" width="30" height="19.999999999999886" as="geometry" />
        </mxCell>
        <mxCell id="2xIWleAzCl-OP4bqtPJO-426" value="Sub-detail" style="text;spacingTop=-5;fontSize=6;align=center;verticalAlign=middle;points=[]" vertex="1" parent="1">
          <mxGeometry x="-611.9461111111112" y="246.52777777777771" width="30" height="19.999999999999886" as="geometry" />
        </mxCell>
        <mxCell id="2xIWleAzCl-OP4bqtPJO-427" value="Sub-detail" style="text;spacingTop=-5;fontSize=6;align=center;verticalAlign=middle;points=[]" vertex="1" parent="1">
          <mxGeometry x="-576.9461111111113" y="246.52777777777783" width="30" height="19.999999999999886" as="geometry" />
        </mxCell>
        <mxCell id="2xIWleAzCl-OP4bqtPJO-428" value="Sub-detail" style="text;spacingTop=-5;fontSize=6;align=center;verticalAlign=middle;points=[]" vertex="1" parent="1">
          <mxGeometry x="-595.0016666666668" y="320.4166666666666" width="30" height="19.999999999999886" as="geometry" />
        </mxCell>
        <mxCell id="2xIWleAzCl-OP4bqtPJO-429" value="Sub-detail" style="text;spacingTop=-5;fontSize=6;align=center;verticalAlign=middle;points=[]" vertex="1" parent="1">
          <mxGeometry x="-560.001666666667" y="320.4166666666667" width="30" height="19.999999999999886" as="geometry" />
        </mxCell>
        <mxCell id="2xIWleAzCl-OP4bqtPJO-430" value="Sub-detail" style="text;spacingTop=-5;fontSize=6;align=center;verticalAlign=middle;points=[]" vertex="1" parent="1">
          <mxGeometry x="-616.9461111111112" y="360.9722222222222" width="30" height="19.999999999999886" as="geometry" />
        </mxCell>
        <mxCell id="2xIWleAzCl-OP4bqtPJO-431" value="Sub-detail" style="text;spacingTop=-5;fontSize=6;align=center;verticalAlign=middle;points=[]" vertex="1" parent="1">
          <mxGeometry x="-581.9461111111113" y="360.9722222222223" width="30" height="19.999999999999886" as="geometry" />
        </mxCell>
        <mxCell id="2xIWleAzCl-OP4bqtPJO-432" value="Sub-detail" style="text;spacingTop=-5;fontSize=6;align=center;verticalAlign=middle;points=[]" vertex="1" parent="1">
          <mxGeometry x="-528.473888888889" y="193.8888888888888" width="30" height="19.999999999999886" as="geometry" />
        </mxCell>
        <mxCell id="2xIWleAzCl-OP4bqtPJO-433" value="Sub-detail" style="text;spacingTop=-5;fontSize=6;align=center;verticalAlign=middle;points=[]" vertex="1" parent="1">
          <mxGeometry x="-493.4738888888891" y="193.8888888888889" width="30" height="19.999999999999886" as="geometry" />
        </mxCell>
        <mxCell id="2xIWleAzCl-OP4bqtPJO-434" value="Sub-detail" style="text;spacingTop=-5;fontSize=6;align=center;verticalAlign=middle;points=[]" vertex="1" parent="1">
          <mxGeometry x="-513.6127777777779" y="228.88888888888883" width="30" height="19.999999999999886" as="geometry" />
        </mxCell>
        <mxCell id="2xIWleAzCl-OP4bqtPJO-435" value="Sub-detail" style="text;spacingTop=-5;fontSize=6;align=center;verticalAlign=middle;points=[]" vertex="1" parent="1">
          <mxGeometry x="-478.61277777777804" y="228.88888888888894" width="30" height="19.999999999999886" as="geometry" />
        </mxCell>
        <mxCell id="2xIWleAzCl-OP4bqtPJO-436" value="Sub-detail" style="text;spacingTop=-5;fontSize=6;align=center;verticalAlign=middle;points=[]" vertex="1" parent="1">
          <mxGeometry x="-509.16833333333346" y="308.3333333333333" width="30" height="19.999999999999886" as="geometry" />
        </mxCell>
        <mxCell id="2xIWleAzCl-OP4bqtPJO-437" value="Sub-detail" style="text;spacingTop=-5;fontSize=6;align=center;verticalAlign=middle;points=[]" vertex="1" parent="1">
          <mxGeometry x="-474.16833333333363" y="308.3333333333334" width="30" height="19.999999999999886" as="geometry" />
        </mxCell>
        <mxCell id="2xIWleAzCl-OP4bqtPJO-438" value="Sub-detail" style="text;spacingTop=-5;fontSize=6;align=center;verticalAlign=middle;points=[]" vertex="1" parent="1">
          <mxGeometry x="-530.4183333333335" y="345.41666666666663" width="30" height="19.999999999999886" as="geometry" />
        </mxCell>
        <mxCell id="2xIWleAzCl-OP4bqtPJO-439" value="Sub-detail" style="text;spacingTop=-5;fontSize=6;align=center;verticalAlign=middle;points=[]" vertex="1" parent="1">
          <mxGeometry x="-495.4183333333336" y="345.41666666666674" width="30" height="19.999999999999886" as="geometry" />
        </mxCell>
        <mxCell id="2xIWleAzCl-OP4bqtPJO-440" value="Detail" style="text;spacingTop=-5;fontSize=8;align=center;verticalAlign=middle;points=[]" vertex="1" parent="1">
          <mxGeometry x="-490.41833333333346" y="180.97222222222229" width="30" height="19.999999999999886" as="geometry" />
        </mxCell>
        <mxCell id="2xIWleAzCl-OP4bqtPJO-441" value="Detail" style="text;spacingTop=-5;fontSize=8;align=center;verticalAlign=middle;points=[]" vertex="1" parent="1">
          <mxGeometry x="-470.41833333333346" y="220.97222222222217" width="30" height="19.999999999999886" as="geometry" />
        </mxCell>
        <mxCell id="2xIWleAzCl-OP4bqtPJO-442" value="Detail" style="text;spacingTop=-5;fontSize=8;align=center;verticalAlign=middle;points=[]" vertex="1" parent="1">
          <mxGeometry x="-470.4183333333335" y="340.97222222222206" width="30" height="19.999999999999886" as="geometry" />
        </mxCell>
        <mxCell id="2xIWleAzCl-OP4bqtPJO-443" value="Detail" style="text;spacingTop=-5;fontSize=8;align=center;verticalAlign=middle;points=[]" vertex="1" parent="1">
          <mxGeometry x="-490.4183333333334" y="380.97222222222246" width="30" height="19.999999999999886" as="geometry" />
        </mxCell>
      </root>
    </mxGraphModel>
  </diagram>
</mxfile>
